<mxfile host="Electron" agent="Mozilla/5.0 (Windows NT 10.0; Win64; x64) AppleWebKit/537.36 (KHTML, like Gecko) draw.io/24.7.17 Chrome/128.0.6613.36 Electron/32.0.1 Safari/537.36" version="24.7.17">
  <diagram name="PÃ¡gina-1" id="s-i6s91byhifcnwqWUtU">
    <mxGraphModel dx="6794" dy="4100" grid="1" gridSize="10" guides="1" tooltips="1" connect="1" arrows="1" fold="1" page="1" pageScale="1" pageWidth="827" pageHeight="1169" math="0" shadow="0">
      <root>
        <mxCell id="0" />
        <mxCell id="1" parent="0" />
        <mxCell id="1VTT25YmE3QGY-ZTXDmP-22" value="" style="whiteSpace=wrap;html=1;aspect=fixed;fillColor=none;" vertex="1" parent="1">
          <mxGeometry x="-232.5" y="1490" width="450" height="450" as="geometry" />
        </mxCell>
        <mxCell id="1VTT25YmE3QGY-ZTXDmP-21" value="" style="whiteSpace=wrap;html=1;aspect=fixed;fillColor=none;" vertex="1" parent="1">
          <mxGeometry x="-212.5" y="1510" width="410" height="410" as="geometry" />
        </mxCell>
        <mxCell id="NGdMQY6MfUtfwmmD_sof-32" style="edgeStyle=orthogonalEdgeStyle;rounded=0;orthogonalLoop=1;jettySize=auto;html=1;exitX=0.5;exitY=1;exitDx=0;exitDy=0;entryX=0.5;entryY=0;entryDx=0;entryDy=0;" parent="1" source="NGdMQY6MfUtfwmmD_sof-1" target="NGdMQY6MfUtfwmmD_sof-31" edge="1">
          <mxGeometry relative="1" as="geometry" />
        </mxCell>
        <mxCell id="NGdMQY6MfUtfwmmD_sof-1" value="Login()" style="rounded=1;whiteSpace=wrap;html=1;" parent="1" vertex="1">
          <mxGeometry x="-1385" y="40" width="120" height="60" as="geometry" />
        </mxCell>
        <mxCell id="NGdMQY6MfUtfwmmD_sof-5" style="edgeStyle=orthogonalEdgeStyle;rounded=0;orthogonalLoop=1;jettySize=auto;html=1;exitX=0.5;exitY=1;exitDx=0;exitDy=0;entryX=0.5;entryY=0;entryDx=0;entryDy=0;" parent="1" source="NGdMQY6MfUtfwmmD_sof-2" target="NGdMQY6MfUtfwmmD_sof-4" edge="1">
          <mxGeometry relative="1" as="geometry" />
        </mxCell>
        <mxCell id="NGdMQY6MfUtfwmmD_sof-2" value="IRAKURRI Erabiltzailea&lt;div&gt;IRAKURRI Pasahitza&lt;/div&gt;" style="shape=parallelogram;perimeter=parallelogramPerimeter;whiteSpace=wrap;html=1;fixedSize=1;" parent="1" vertex="1">
          <mxGeometry x="-1420" y="210" width="190" height="60" as="geometry" />
        </mxCell>
        <mxCell id="NGdMQY6MfUtfwmmD_sof-9" style="edgeStyle=orthogonalEdgeStyle;rounded=0;orthogonalLoop=1;jettySize=auto;html=1;exitX=1;exitY=0.5;exitDx=0;exitDy=0;entryX=0.5;entryY=0;entryDx=0;entryDy=0;" parent="1" source="NGdMQY6MfUtfwmmD_sof-4" target="NGdMQY6MfUtfwmmD_sof-6" edge="1">
          <mxGeometry relative="1" as="geometry" />
        </mxCell>
        <mxCell id="NGdMQY6MfUtfwmmD_sof-14" style="edgeStyle=orthogonalEdgeStyle;rounded=0;orthogonalLoop=1;jettySize=auto;html=1;exitX=0;exitY=0.5;exitDx=0;exitDy=0;entryX=0.5;entryY=0;entryDx=0;entryDy=0;" parent="1" source="NGdMQY6MfUtfwmmD_sof-4" target="NGdMQY6MfUtfwmmD_sof-13" edge="1">
          <mxGeometry relative="1" as="geometry" />
        </mxCell>
        <mxCell id="NGdMQY6MfUtfwmmD_sof-4" value="Erabiltzailea = Erabiltzailea.ERABILTZAILEAK.txt &amp;amp;&amp;amp;&amp;nbsp;&lt;div&gt;Pasahitza = Pasahitza.ERABILTZAILEAK.txt&lt;/div&gt;" style="rhombus;whiteSpace=wrap;html=1;" parent="1" vertex="1">
          <mxGeometry x="-1510" y="310" width="370" height="120" as="geometry" />
        </mxCell>
        <mxCell id="NGdMQY6MfUtfwmmD_sof-11" style="edgeStyle=orthogonalEdgeStyle;rounded=0;orthogonalLoop=1;jettySize=auto;html=1;exitX=0.5;exitY=1;exitDx=0;exitDy=0;entryX=1;entryY=0.5;entryDx=0;entryDy=0;" parent="1" source="NGdMQY6MfUtfwmmD_sof-6" target="NGdMQY6MfUtfwmmD_sof-2" edge="1">
          <mxGeometry relative="1" as="geometry">
            <Array as="points">
              <mxPoint x="-1090" y="550" />
              <mxPoint x="-940" y="550" />
              <mxPoint x="-940" y="240" />
            </Array>
          </mxGeometry>
        </mxCell>
        <mxCell id="NGdMQY6MfUtfwmmD_sof-6" value="IDATZI &quot;Erabiltzailea edo pasahitza txarto daude&quot;" style="shape=parallelogram;perimeter=parallelogramPerimeter;whiteSpace=wrap;html=1;fixedSize=1;" parent="1" vertex="1">
          <mxGeometry x="-1180" y="470" width="180" height="60" as="geometry" />
        </mxCell>
        <mxCell id="NGdMQY6MfUtfwmmD_sof-8" value="BAI" style="text;html=1;align=center;verticalAlign=middle;whiteSpace=wrap;rounded=0;" parent="1" vertex="1">
          <mxGeometry x="-1570" y="340" width="60" height="30" as="geometry" />
        </mxCell>
        <mxCell id="NGdMQY6MfUtfwmmD_sof-10" value="EZ" style="text;html=1;align=center;verticalAlign=middle;whiteSpace=wrap;rounded=0;" parent="1" vertex="1">
          <mxGeometry x="-1150" y="340" width="60" height="30" as="geometry" />
        </mxCell>
        <mxCell id="NGdMQY6MfUtfwmmD_sof-13" value="Login = true" style="rounded=0;whiteSpace=wrap;html=1;" parent="1" vertex="1">
          <mxGeometry x="-1620" y="470" width="100" height="40" as="geometry" />
        </mxCell>
        <mxCell id="NGdMQY6MfUtfwmmD_sof-35" style="edgeStyle=orthogonalEdgeStyle;rounded=0;orthogonalLoop=1;jettySize=auto;html=1;exitX=0.5;exitY=1;exitDx=0;exitDy=0;entryX=0.5;entryY=0;entryDx=0;entryDy=0;" parent="1" source="NGdMQY6MfUtfwmmD_sof-15" target="NGdMQY6MfUtfwmmD_sof-34" edge="1">
          <mxGeometry relative="1" as="geometry" />
        </mxCell>
        <mxCell id="NGdMQY6MfUtfwmmD_sof-15" value="Logout()" style="rounded=1;whiteSpace=wrap;html=1;" parent="1" vertex="1">
          <mxGeometry x="-650" y="40" width="120" height="60" as="geometry" />
        </mxCell>
        <mxCell id="NGdMQY6MfUtfwmmD_sof-24" style="edgeStyle=orthogonalEdgeStyle;rounded=0;orthogonalLoop=1;jettySize=auto;html=1;exitX=0;exitY=0.5;exitDx=0;exitDy=0;entryX=0.5;entryY=0;entryDx=0;entryDy=0;" parent="1" source="NGdMQY6MfUtfwmmD_sof-16" target="NGdMQY6MfUtfwmmD_sof-23" edge="1">
          <mxGeometry relative="1" as="geometry" />
        </mxCell>
        <mxCell id="NGdMQY6MfUtfwmmD_sof-28" style="edgeStyle=orthogonalEdgeStyle;rounded=0;orthogonalLoop=1;jettySize=auto;html=1;exitX=1;exitY=0.5;exitDx=0;exitDy=0;entryX=0.5;entryY=0;entryDx=0;entryDy=0;" parent="1" source="NGdMQY6MfUtfwmmD_sof-16" target="NGdMQY6MfUtfwmmD_sof-27" edge="1">
          <mxGeometry relative="1" as="geometry">
            <Array as="points">
              <mxPoint x="-440" y="280" />
              <mxPoint x="-440" y="365" />
              <mxPoint x="-590" y="365" />
            </Array>
          </mxGeometry>
        </mxCell>
        <mxCell id="NGdMQY6MfUtfwmmD_sof-16" value="saiBE != &quot;Bai&quot; &amp;amp;&amp;amp; saiBE != &quot;Ez&quot;" style="rhombus;whiteSpace=wrap;html=1;" parent="1" vertex="1">
          <mxGeometry x="-697.5" y="240" width="215" height="80" as="geometry" />
        </mxCell>
        <mxCell id="NGdMQY6MfUtfwmmD_sof-21" style="edgeStyle=orthogonalEdgeStyle;rounded=0;orthogonalLoop=1;jettySize=auto;html=1;exitX=0.5;exitY=1;exitDx=0;exitDy=0;entryX=0.5;entryY=0;entryDx=0;entryDy=0;" parent="1" source="NGdMQY6MfUtfwmmD_sof-19" target="NGdMQY6MfUtfwmmD_sof-16" edge="1">
          <mxGeometry relative="1" as="geometry" />
        </mxCell>
        <mxCell id="NGdMQY6MfUtfwmmD_sof-19" value="IRAKURRI saiBE" style="shape=parallelogram;perimeter=parallelogramPerimeter;whiteSpace=wrap;html=1;fixedSize=1;" parent="1" vertex="1">
          <mxGeometry x="-655" y="180" width="130" height="30" as="geometry" />
        </mxCell>
        <mxCell id="NGdMQY6MfUtfwmmD_sof-26" style="edgeStyle=orthogonalEdgeStyle;rounded=0;orthogonalLoop=1;jettySize=auto;html=1;exitX=0.5;exitY=1;exitDx=0;exitDy=0;entryX=0;entryY=0.5;entryDx=0;entryDy=0;" parent="1" source="NGdMQY6MfUtfwmmD_sof-23" target="NGdMQY6MfUtfwmmD_sof-19" edge="1">
          <mxGeometry relative="1" as="geometry">
            <Array as="points">
              <mxPoint x="-735" y="400" />
              <mxPoint x="-850" y="400" />
              <mxPoint x="-850" y="195" />
            </Array>
          </mxGeometry>
        </mxCell>
        <mxCell id="NGdMQY6MfUtfwmmD_sof-23" value="IDATZI &quot;Ez da erantzun egokia&quot;" style="shape=parallelogram;perimeter=parallelogramPerimeter;whiteSpace=wrap;html=1;fixedSize=1;" parent="1" vertex="1">
          <mxGeometry x="-820" y="340" width="170" height="40" as="geometry" />
        </mxCell>
        <mxCell id="NGdMQY6MfUtfwmmD_sof-25" value="BAI" style="text;html=1;align=center;verticalAlign=middle;whiteSpace=wrap;rounded=0;" parent="1" vertex="1">
          <mxGeometry x="-740" y="250" width="60" height="30" as="geometry" />
        </mxCell>
        <mxCell id="NGdMQY6MfUtfwmmD_sof-38" style="edgeStyle=orthogonalEdgeStyle;rounded=0;orthogonalLoop=1;jettySize=auto;html=1;exitX=0;exitY=0.5;exitDx=0;exitDy=0;entryX=0.5;entryY=0;entryDx=0;entryDy=0;" parent="1" source="NGdMQY6MfUtfwmmD_sof-27" target="NGdMQY6MfUtfwmmD_sof-30" edge="1">
          <mxGeometry relative="1" as="geometry" />
        </mxCell>
        <mxCell id="NGdMQY6MfUtfwmmD_sof-40" style="edgeStyle=orthogonalEdgeStyle;rounded=0;orthogonalLoop=1;jettySize=auto;html=1;exitX=1;exitY=0.5;exitDx=0;exitDy=0;" parent="1" source="NGdMQY6MfUtfwmmD_sof-27" target="NGdMQY6MfUtfwmmD_sof-39" edge="1">
          <mxGeometry relative="1" as="geometry" />
        </mxCell>
        <mxCell id="NGdMQY6MfUtfwmmD_sof-27" value="saiBE = &quot;Bai&quot;" style="rhombus;whiteSpace=wrap;html=1;" parent="1" vertex="1">
          <mxGeometry x="-640" y="410" width="100" height="70" as="geometry" />
        </mxCell>
        <mxCell id="NGdMQY6MfUtfwmmD_sof-29" value="EZ" style="text;html=1;align=center;verticalAlign=middle;whiteSpace=wrap;rounded=0;" parent="1" vertex="1">
          <mxGeometry x="-490" y="250" width="60" height="30" as="geometry" />
        </mxCell>
        <mxCell id="NGdMQY6MfUtfwmmD_sof-30" value="logoutConfirmed = true" style="rounded=0;whiteSpace=wrap;html=1;" parent="1" vertex="1">
          <mxGeometry x="-770" y="490" width="140" height="40" as="geometry" />
        </mxCell>
        <mxCell id="NGdMQY6MfUtfwmmD_sof-33" style="edgeStyle=orthogonalEdgeStyle;rounded=0;orthogonalLoop=1;jettySize=auto;html=1;exitX=0.5;exitY=1;exitDx=0;exitDy=0;entryX=0.5;entryY=0;entryDx=0;entryDy=0;" parent="1" source="NGdMQY6MfUtfwmmD_sof-31" target="NGdMQY6MfUtfwmmD_sof-2" edge="1">
          <mxGeometry relative="1" as="geometry" />
        </mxCell>
        <mxCell id="NGdMQY6MfUtfwmmD_sof-31" value="Login = false" style="rounded=0;whiteSpace=wrap;html=1;" parent="1" vertex="1">
          <mxGeometry x="-1372.5" y="137.5" width="95" height="35" as="geometry" />
        </mxCell>
        <mxCell id="NGdMQY6MfUtfwmmD_sof-37" style="edgeStyle=orthogonalEdgeStyle;rounded=0;orthogonalLoop=1;jettySize=auto;html=1;exitX=0.5;exitY=1;exitDx=0;exitDy=0;entryX=0.5;entryY=0;entryDx=0;entryDy=0;" parent="1" source="NGdMQY6MfUtfwmmD_sof-34" target="NGdMQY6MfUtfwmmD_sof-19" edge="1">
          <mxGeometry relative="1" as="geometry" />
        </mxCell>
        <mxCell id="NGdMQY6MfUtfwmmD_sof-34" value="Boolean logoutConfirmed" style="rounded=0;whiteSpace=wrap;html=1;" parent="1" vertex="1">
          <mxGeometry x="-662.5" y="120" width="145" height="37" as="geometry" />
        </mxCell>
        <mxCell id="NGdMQY6MfUtfwmmD_sof-39" value="logoutConfirmed = false" style="rounded=0;whiteSpace=wrap;html=1;" parent="1" vertex="1">
          <mxGeometry x="-550" y="493" width="145" height="37" as="geometry" />
        </mxCell>
        <mxCell id="NGdMQY6MfUtfwmmD_sof-41" value="BAI" style="text;html=1;align=center;verticalAlign=middle;whiteSpace=wrap;rounded=0;" parent="1" vertex="1">
          <mxGeometry x="-697.5" y="410" width="60" height="30" as="geometry" />
        </mxCell>
        <mxCell id="NGdMQY6MfUtfwmmD_sof-42" value="EZ" style="text;html=1;align=center;verticalAlign=middle;whiteSpace=wrap;rounded=0;" parent="1" vertex="1">
          <mxGeometry x="-542.5" y="410" width="60" height="30" as="geometry" />
        </mxCell>
        <mxCell id="NGdMQY6MfUtfwmmD_sof-45" style="edgeStyle=orthogonalEdgeStyle;rounded=0;orthogonalLoop=1;jettySize=auto;html=1;exitX=0.5;exitY=1;exitDx=0;exitDy=0;entryX=0.5;entryY=0;entryDx=0;entryDy=0;" parent="1" source="NGdMQY6MfUtfwmmD_sof-43" target="NGdMQY6MfUtfwmmD_sof-44" edge="1">
          <mxGeometry relative="1" as="geometry" />
        </mxCell>
        <mxCell id="NGdMQY6MfUtfwmmD_sof-43" value="Menup(Login)" style="rounded=1;whiteSpace=wrap;html=1;" parent="1" vertex="1">
          <mxGeometry x="-205.37" y="40" width="103.75" height="60" as="geometry" />
        </mxCell>
        <mxCell id="NGdMQY6MfUtfwmmD_sof-57" style="edgeStyle=orthogonalEdgeStyle;rounded=0;orthogonalLoop=1;jettySize=auto;html=1;exitX=0.5;exitY=1;exitDx=0;exitDy=0;entryX=0.5;entryY=0;entryDx=0;entryDy=0;" parent="1" source="NGdMQY6MfUtfwmmD_sof-44" target="NGdMQY6MfUtfwmmD_sof-56" edge="1">
          <mxGeometry relative="1" as="geometry" />
        </mxCell>
        <mxCell id="NGdMQY6MfUtfwmmD_sof-44" value="menu = &quot;0&quot;&lt;div&gt;Login = true&lt;/div&gt;" style="rounded=0;whiteSpace=wrap;html=1;" parent="1" vertex="1">
          <mxGeometry x="-201.25" y="120" width="90" height="41.5" as="geometry" />
        </mxCell>
        <mxCell id="NGdMQY6MfUtfwmmD_sof-50" style="edgeStyle=orthogonalEdgeStyle;rounded=0;orthogonalLoop=1;jettySize=auto;html=1;exitX=0;exitY=0.5;exitDx=0;exitDy=0;entryX=0.5;entryY=0;entryDx=0;entryDy=0;" parent="1" source="NGdMQY6MfUtfwmmD_sof-47" target="NGdMQY6MfUtfwmmD_sof-49" edge="1">
          <mxGeometry relative="1" as="geometry">
            <Array as="points">
              <mxPoint x="-250" y="265" />
              <mxPoint x="-250" y="325" />
              <mxPoint x="-152" y="325" />
            </Array>
          </mxGeometry>
        </mxCell>
        <mxCell id="NGdMQY6MfUtfwmmD_sof-47" value="menu != &quot;4&quot;" style="rhombus;whiteSpace=wrap;html=1;" parent="1" vertex="1">
          <mxGeometry x="-205" y="235" width="105" height="60" as="geometry" />
        </mxCell>
        <mxCell id="NGdMQY6MfUtfwmmD_sof-54" style="edgeStyle=orthogonalEdgeStyle;rounded=0;orthogonalLoop=1;jettySize=auto;html=1;exitX=0;exitY=0.5;exitDx=0;exitDy=0;entryX=0.5;entryY=0;entryDx=0;entryDy=0;" parent="1" source="NGdMQY6MfUtfwmmD_sof-49" target="NGdMQY6MfUtfwmmD_sof-53" edge="1">
          <mxGeometry relative="1" as="geometry" />
        </mxCell>
        <mxCell id="NGdMQY6MfUtfwmmD_sof-71" style="edgeStyle=orthogonalEdgeStyle;rounded=0;orthogonalLoop=1;jettySize=auto;html=1;exitX=1;exitY=0.5;exitDx=0;exitDy=0;entryX=0.5;entryY=0;entryDx=0;entryDy=0;" parent="1" source="NGdMQY6MfUtfwmmD_sof-49" target="NGdMQY6MfUtfwmmD_sof-67" edge="1">
          <mxGeometry relative="1" as="geometry">
            <Array as="points">
              <mxPoint x="-70" y="390" />
              <mxPoint x="-70" y="464" />
              <mxPoint x="-152" y="464" />
            </Array>
          </mxGeometry>
        </mxCell>
        <mxCell id="NGdMQY6MfUtfwmmD_sof-49" value="menu = &quot;1&quot;" style="rhombus;whiteSpace=wrap;html=1;" parent="1" vertex="1">
          <mxGeometry x="-201.25" y="355" width="97.5" height="70" as="geometry" />
        </mxCell>
        <mxCell id="NGdMQY6MfUtfwmmD_sof-51" value="BAI" style="text;html=1;align=center;verticalAlign=middle;whiteSpace=wrap;rounded=0;" parent="1" vertex="1">
          <mxGeometry x="-257.5" y="235" width="60" height="30" as="geometry" />
        </mxCell>
        <mxCell id="NGdMQY6MfUtfwmmD_sof-59" style="edgeStyle=orthogonalEdgeStyle;rounded=0;orthogonalLoop=1;jettySize=auto;html=1;exitX=0;exitY=0.5;exitDx=0;exitDy=0;entryX=0;entryY=0.5;entryDx=0;entryDy=0;" parent="1" source="NGdMQY6MfUtfwmmD_sof-53" target="NGdMQY6MfUtfwmmD_sof-56" edge="1">
          <mxGeometry relative="1" as="geometry">
            <Array as="points">
              <mxPoint x="-327" y="458" />
              <mxPoint x="-327" y="198" />
            </Array>
          </mxGeometry>
        </mxCell>
        <mxCell id="NGdMQY6MfUtfwmmD_sof-53" value="LangileMenua()" style="shape=process;whiteSpace=wrap;html=1;backgroundOutline=1;" parent="1" vertex="1">
          <mxGeometry x="-307.5" y="435" width="120" height="45" as="geometry" />
        </mxCell>
        <mxCell id="NGdMQY6MfUtfwmmD_sof-58" style="edgeStyle=orthogonalEdgeStyle;rounded=0;orthogonalLoop=1;jettySize=auto;html=1;exitX=0.5;exitY=1;exitDx=0;exitDy=0;entryX=0.5;entryY=0;entryDx=0;entryDy=0;" parent="1" source="NGdMQY6MfUtfwmmD_sof-56" target="NGdMQY6MfUtfwmmD_sof-47" edge="1">
          <mxGeometry relative="1" as="geometry" />
        </mxCell>
        <mxCell id="NGdMQY6MfUtfwmmD_sof-56" value="IRAKURRi menu" style="shape=parallelogram;perimeter=parallelogramPerimeter;whiteSpace=wrap;html=1;fixedSize=1;" parent="1" vertex="1">
          <mxGeometry x="-220" y="182.5" width="133" height="30" as="geometry" />
        </mxCell>
        <mxCell id="NGdMQY6MfUtfwmmD_sof-60" value="BAI" style="text;html=1;align=center;verticalAlign=middle;whiteSpace=wrap;rounded=0;" parent="1" vertex="1">
          <mxGeometry x="-247.5" y="360" width="60" height="30" as="geometry" />
        </mxCell>
        <mxCell id="NGdMQY6MfUtfwmmD_sof-64" value="EZ" style="text;html=1;align=center;verticalAlign=middle;whiteSpace=wrap;rounded=0;" parent="1" vertex="1">
          <mxGeometry x="-120" y="360" width="60" height="30" as="geometry" />
        </mxCell>
        <mxCell id="NGdMQY6MfUtfwmmD_sof-65" style="edgeStyle=orthogonalEdgeStyle;rounded=0;orthogonalLoop=1;jettySize=auto;html=1;exitX=0;exitY=0.5;exitDx=0;exitDy=0;entryX=0.5;entryY=0;entryDx=0;entryDy=0;" parent="1" source="NGdMQY6MfUtfwmmD_sof-67" target="NGdMQY6MfUtfwmmD_sof-68" edge="1">
          <mxGeometry relative="1" as="geometry" />
        </mxCell>
        <mxCell id="NGdMQY6MfUtfwmmD_sof-67" value="menu = &quot;2&quot;" style="rhombus;whiteSpace=wrap;html=1;" parent="1" vertex="1">
          <mxGeometry x="-201.25" y="503" width="97.5" height="70" as="geometry" />
        </mxCell>
        <mxCell id="NGdMQY6MfUtfwmmD_sof-72" style="edgeStyle=orthogonalEdgeStyle;rounded=0;orthogonalLoop=1;jettySize=auto;html=1;exitX=0;exitY=0.5;exitDx=0;exitDy=0;entryX=0;entryY=0.5;entryDx=0;entryDy=0;" parent="1" source="NGdMQY6MfUtfwmmD_sof-68" target="NGdMQY6MfUtfwmmD_sof-56" edge="1">
          <mxGeometry relative="1" as="geometry">
            <Array as="points">
              <mxPoint x="-327" y="606" />
              <mxPoint x="-327" y="198" />
            </Array>
          </mxGeometry>
        </mxCell>
        <mxCell id="NGdMQY6MfUtfwmmD_sof-68" value="BezeroMenua()" style="shape=process;whiteSpace=wrap;html=1;backgroundOutline=1;" parent="1" vertex="1">
          <mxGeometry x="-307.5" y="583" width="120" height="45" as="geometry" />
        </mxCell>
        <mxCell id="NGdMQY6MfUtfwmmD_sof-69" value="BAI" style="text;html=1;align=center;verticalAlign=middle;whiteSpace=wrap;rounded=0;" parent="1" vertex="1">
          <mxGeometry x="-247.5" y="508" width="60" height="30" as="geometry" />
        </mxCell>
        <mxCell id="NGdMQY6MfUtfwmmD_sof-98" style="edgeStyle=orthogonalEdgeStyle;rounded=0;orthogonalLoop=1;jettySize=auto;html=1;exitX=0.25;exitY=1;exitDx=0;exitDy=0;entryX=0.5;entryY=0;entryDx=0;entryDy=0;" parent="1" source="NGdMQY6MfUtfwmmD_sof-70" target="NGdMQY6MfUtfwmmD_sof-92" edge="1">
          <mxGeometry relative="1" as="geometry">
            <Array as="points">
              <mxPoint x="-70" y="538" />
              <mxPoint x="-70" y="594" />
              <mxPoint x="-152" y="594" />
            </Array>
          </mxGeometry>
        </mxCell>
        <mxCell id="NGdMQY6MfUtfwmmD_sof-70" value="EZ" style="text;html=1;align=center;verticalAlign=middle;whiteSpace=wrap;rounded=0;" parent="1" vertex="1">
          <mxGeometry x="-120" y="508" width="60" height="30" as="geometry" />
        </mxCell>
        <mxCell id="NGdMQY6MfUtfwmmD_sof-225" style="edgeStyle=orthogonalEdgeStyle;rounded=0;orthogonalLoop=1;jettySize=auto;html=1;exitX=0;exitY=0.5;exitDx=0;exitDy=0;entryX=0;entryY=0.5;entryDx=0;entryDy=0;" parent="1" source="NGdMQY6MfUtfwmmD_sof-88" target="NGdMQY6MfUtfwmmD_sof-56" edge="1">
          <mxGeometry relative="1" as="geometry">
            <Array as="points">
              <mxPoint x="-340" y="810" />
              <mxPoint x="-340" y="198" />
            </Array>
          </mxGeometry>
        </mxCell>
        <mxCell id="NGdMQY6MfUtfwmmD_sof-88" value="IDATZI &quot;Ez da aukera zuzena. Saiatu berriro&quot;" style="shape=parallelogram;perimeter=parallelogramPerimeter;whiteSpace=wrap;html=1;fixedSize=1;" parent="1" vertex="1">
          <mxGeometry x="-232.5" y="790" width="160" height="40" as="geometry" />
        </mxCell>
        <mxCell id="NGdMQY6MfUtfwmmD_sof-91" style="edgeStyle=orthogonalEdgeStyle;rounded=0;orthogonalLoop=1;jettySize=auto;html=1;exitX=0;exitY=0.5;exitDx=0;exitDy=0;entryX=0.5;entryY=0;entryDx=0;entryDy=0;" parent="1" source="NGdMQY6MfUtfwmmD_sof-92" target="NGdMQY6MfUtfwmmD_sof-93" edge="1">
          <mxGeometry relative="1" as="geometry" />
        </mxCell>
        <mxCell id="NGdMQY6MfUtfwmmD_sof-92" value="menu = &quot;3&quot;" style="rhombus;whiteSpace=wrap;html=1;" parent="1" vertex="1">
          <mxGeometry x="-201.25" y="650" width="97.5" height="70" as="geometry" />
        </mxCell>
        <mxCell id="NGdMQY6MfUtfwmmD_sof-96" style="edgeStyle=orthogonalEdgeStyle;rounded=0;orthogonalLoop=1;jettySize=auto;html=1;exitX=0;exitY=0.5;exitDx=0;exitDy=0;entryX=0;entryY=0.5;entryDx=0;entryDy=0;" parent="1" source="NGdMQY6MfUtfwmmD_sof-93" target="NGdMQY6MfUtfwmmD_sof-56" edge="1">
          <mxGeometry relative="1" as="geometry">
            <Array as="points">
              <mxPoint x="-327" y="753" />
              <mxPoint x="-327" y="198" />
            </Array>
          </mxGeometry>
        </mxCell>
        <mxCell id="NGdMQY6MfUtfwmmD_sof-93" value="MenuFitxategiak()" style="shape=process;whiteSpace=wrap;html=1;backgroundOutline=1;" parent="1" vertex="1">
          <mxGeometry x="-307.5" y="730" width="127.5" height="45" as="geometry" />
        </mxCell>
        <mxCell id="NGdMQY6MfUtfwmmD_sof-94" value="BAI" style="text;html=1;align=center;verticalAlign=middle;whiteSpace=wrap;rounded=0;" parent="1" vertex="1">
          <mxGeometry x="-247.5" y="655" width="60" height="30" as="geometry" />
        </mxCell>
        <mxCell id="NGdMQY6MfUtfwmmD_sof-226" style="edgeStyle=orthogonalEdgeStyle;rounded=0;orthogonalLoop=1;jettySize=auto;html=1;exitX=0.25;exitY=1;exitDx=0;exitDy=0;entryX=0.5;entryY=0;entryDx=0;entryDy=0;" parent="1" source="NGdMQY6MfUtfwmmD_sof-95" target="NGdMQY6MfUtfwmmD_sof-88" edge="1">
          <mxGeometry relative="1" as="geometry">
            <Array as="points">
              <mxPoint x="-70" y="685" />
              <mxPoint x="-70" y="738" />
              <mxPoint x="-152" y="738" />
            </Array>
          </mxGeometry>
        </mxCell>
        <mxCell id="NGdMQY6MfUtfwmmD_sof-95" value="EZ" style="text;html=1;align=center;verticalAlign=middle;whiteSpace=wrap;rounded=0;" parent="1" vertex="1">
          <mxGeometry x="-120" y="655" width="60" height="30" as="geometry" />
        </mxCell>
        <mxCell id="NGdMQY6MfUtfwmmD_sof-103" style="edgeStyle=orthogonalEdgeStyle;rounded=0;orthogonalLoop=1;jettySize=auto;html=1;exitX=0.5;exitY=1;exitDx=0;exitDy=0;entryX=0.5;entryY=0;entryDx=0;entryDy=0;" parent="1" source="NGdMQY6MfUtfwmmD_sof-104" target="NGdMQY6MfUtfwmmD_sof-106" edge="1">
          <mxGeometry relative="1" as="geometry" />
        </mxCell>
        <mxCell id="NGdMQY6MfUtfwmmD_sof-104" value="BezeroMenua()" style="rounded=1;whiteSpace=wrap;html=1;" parent="1" vertex="1">
          <mxGeometry x="257" y="40" width="120" height="60" as="geometry" />
        </mxCell>
        <mxCell id="NGdMQY6MfUtfwmmD_sof-105" style="edgeStyle=orthogonalEdgeStyle;rounded=0;orthogonalLoop=1;jettySize=auto;html=1;exitX=0.5;exitY=1;exitDx=0;exitDy=0;entryX=0.5;entryY=0;entryDx=0;entryDy=0;" parent="1" source="NGdMQY6MfUtfwmmD_sof-106" target="NGdMQY6MfUtfwmmD_sof-116" edge="1">
          <mxGeometry relative="1" as="geometry" />
        </mxCell>
        <mxCell id="NGdMQY6MfUtfwmmD_sof-106" value="menu3 = &quot;0&quot;" style="rounded=0;whiteSpace=wrap;html=1;" parent="1" vertex="1">
          <mxGeometry x="275.75" y="120" width="90" height="41.5" as="geometry" />
        </mxCell>
        <mxCell id="NGdMQY6MfUtfwmmD_sof-107" style="edgeStyle=orthogonalEdgeStyle;rounded=0;orthogonalLoop=1;jettySize=auto;html=1;exitX=0;exitY=0.5;exitDx=0;exitDy=0;entryX=0.5;entryY=0;entryDx=0;entryDy=0;" parent="1" source="NGdMQY6MfUtfwmmD_sof-108" target="NGdMQY6MfUtfwmmD_sof-111" edge="1">
          <mxGeometry relative="1" as="geometry">
            <Array as="points">
              <mxPoint x="227" y="265" />
              <mxPoint x="227" y="325" />
              <mxPoint x="325" y="325" />
            </Array>
          </mxGeometry>
        </mxCell>
        <mxCell id="NGdMQY6MfUtfwmmD_sof-216" style="edgeStyle=orthogonalEdgeStyle;rounded=0;orthogonalLoop=1;jettySize=auto;html=1;exitX=1;exitY=0.5;exitDx=0;exitDy=0;entryX=0.5;entryY=0;entryDx=0;entryDy=0;" parent="1" source="NGdMQY6MfUtfwmmD_sof-108" target="NGdMQY6MfUtfwmmD_sof-142" edge="1">
          <mxGeometry relative="1" as="geometry" />
        </mxCell>
        <mxCell id="NGdMQY6MfUtfwmmD_sof-108" value="menu3 != &quot;3&quot;" style="rhombus;whiteSpace=wrap;html=1;" parent="1" vertex="1">
          <mxGeometry x="272" y="235" width="105" height="60" as="geometry" />
        </mxCell>
        <mxCell id="NGdMQY6MfUtfwmmD_sof-109" style="edgeStyle=orthogonalEdgeStyle;rounded=0;orthogonalLoop=1;jettySize=auto;html=1;exitX=0;exitY=0.5;exitDx=0;exitDy=0;entryX=0.5;entryY=0;entryDx=0;entryDy=0;" parent="1" source="NGdMQY6MfUtfwmmD_sof-111" target="NGdMQY6MfUtfwmmD_sof-114" edge="1">
          <mxGeometry relative="1" as="geometry" />
        </mxCell>
        <mxCell id="NGdMQY6MfUtfwmmD_sof-110" style="edgeStyle=orthogonalEdgeStyle;rounded=0;orthogonalLoop=1;jettySize=auto;html=1;exitX=1;exitY=0.5;exitDx=0;exitDy=0;entryX=0.5;entryY=0;entryDx=0;entryDy=0;" parent="1" source="NGdMQY6MfUtfwmmD_sof-111" target="NGdMQY6MfUtfwmmD_sof-120" edge="1">
          <mxGeometry relative="1" as="geometry">
            <Array as="points">
              <mxPoint x="407" y="390" />
              <mxPoint x="407" y="464" />
              <mxPoint x="325" y="464" />
            </Array>
          </mxGeometry>
        </mxCell>
        <mxCell id="NGdMQY6MfUtfwmmD_sof-111" value="menu3 = &quot;1&quot;" style="rhombus;whiteSpace=wrap;html=1;" parent="1" vertex="1">
          <mxGeometry x="275.75" y="355" width="97.5" height="70" as="geometry" />
        </mxCell>
        <mxCell id="NGdMQY6MfUtfwmmD_sof-112" value="BAI" style="text;html=1;align=center;verticalAlign=middle;whiteSpace=wrap;rounded=0;" parent="1" vertex="1">
          <mxGeometry x="219.5" y="235" width="60" height="30" as="geometry" />
        </mxCell>
        <mxCell id="NGdMQY6MfUtfwmmD_sof-113" style="edgeStyle=orthogonalEdgeStyle;rounded=0;orthogonalLoop=1;jettySize=auto;html=1;exitX=0;exitY=0.5;exitDx=0;exitDy=0;entryX=0;entryY=0.5;entryDx=0;entryDy=0;" parent="1" source="NGdMQY6MfUtfwmmD_sof-114" target="NGdMQY6MfUtfwmmD_sof-116" edge="1">
          <mxGeometry relative="1" as="geometry">
            <Array as="points">
              <mxPoint x="150" y="458" />
              <mxPoint x="150" y="198" />
            </Array>
          </mxGeometry>
        </mxCell>
        <mxCell id="NGdMQY6MfUtfwmmD_sof-114" value="BezeroContc()" style="shape=process;whiteSpace=wrap;html=1;backgroundOutline=1;" parent="1" vertex="1">
          <mxGeometry x="169.5" y="435" width="120" height="45" as="geometry" />
        </mxCell>
        <mxCell id="NGdMQY6MfUtfwmmD_sof-115" style="edgeStyle=orthogonalEdgeStyle;rounded=0;orthogonalLoop=1;jettySize=auto;html=1;exitX=0.5;exitY=1;exitDx=0;exitDy=0;entryX=0.5;entryY=0;entryDx=0;entryDy=0;" parent="1" source="NGdMQY6MfUtfwmmD_sof-116" target="NGdMQY6MfUtfwmmD_sof-108" edge="1">
          <mxGeometry relative="1" as="geometry" />
        </mxCell>
        <mxCell id="NGdMQY6MfUtfwmmD_sof-116" value="IRAKURRi menu3" style="shape=parallelogram;perimeter=parallelogramPerimeter;whiteSpace=wrap;html=1;fixedSize=1;" parent="1" vertex="1">
          <mxGeometry x="257" y="182.5" width="133" height="30" as="geometry" />
        </mxCell>
        <mxCell id="NGdMQY6MfUtfwmmD_sof-117" value="BAI" style="text;html=1;align=center;verticalAlign=middle;whiteSpace=wrap;rounded=0;" parent="1" vertex="1">
          <mxGeometry x="229.5" y="360" width="60" height="30" as="geometry" />
        </mxCell>
        <mxCell id="NGdMQY6MfUtfwmmD_sof-118" value="EZ" style="text;html=1;align=center;verticalAlign=middle;whiteSpace=wrap;rounded=0;" parent="1" vertex="1">
          <mxGeometry x="357" y="360" width="60" height="30" as="geometry" />
        </mxCell>
        <mxCell id="NGdMQY6MfUtfwmmD_sof-119" style="edgeStyle=orthogonalEdgeStyle;rounded=0;orthogonalLoop=1;jettySize=auto;html=1;exitX=0;exitY=0.5;exitDx=0;exitDy=0;entryX=0.5;entryY=0;entryDx=0;entryDy=0;" parent="1" source="NGdMQY6MfUtfwmmD_sof-120" target="NGdMQY6MfUtfwmmD_sof-122" edge="1">
          <mxGeometry relative="1" as="geometry" />
        </mxCell>
        <mxCell id="NGdMQY6MfUtfwmmD_sof-218" style="edgeStyle=orthogonalEdgeStyle;rounded=0;orthogonalLoop=1;jettySize=auto;html=1;exitX=1;exitY=0.5;exitDx=0;exitDy=0;entryX=0.5;entryY=0;entryDx=0;entryDy=0;" parent="1" source="NGdMQY6MfUtfwmmD_sof-120" target="NGdMQY6MfUtfwmmD_sof-131" edge="1">
          <mxGeometry relative="1" as="geometry">
            <Array as="points">
              <mxPoint x="410" y="538" />
              <mxPoint x="410" y="612" />
              <mxPoint x="325" y="612" />
            </Array>
          </mxGeometry>
        </mxCell>
        <mxCell id="NGdMQY6MfUtfwmmD_sof-120" value="menu3 = &quot;2&quot;" style="rhombus;whiteSpace=wrap;html=1;" parent="1" vertex="1">
          <mxGeometry x="275.75" y="503" width="97.5" height="70" as="geometry" />
        </mxCell>
        <mxCell id="NGdMQY6MfUtfwmmD_sof-121" style="edgeStyle=orthogonalEdgeStyle;rounded=0;orthogonalLoop=1;jettySize=auto;html=1;exitX=0;exitY=0.5;exitDx=0;exitDy=0;entryX=0;entryY=0.5;entryDx=0;entryDy=0;" parent="1" source="NGdMQY6MfUtfwmmD_sof-122" target="NGdMQY6MfUtfwmmD_sof-116" edge="1">
          <mxGeometry relative="1" as="geometry">
            <Array as="points">
              <mxPoint x="150" y="606" />
              <mxPoint x="150" y="198" />
            </Array>
          </mxGeometry>
        </mxCell>
        <mxCell id="NGdMQY6MfUtfwmmD_sof-122" value="FakturaSortu()" style="shape=process;whiteSpace=wrap;html=1;backgroundOutline=1;" parent="1" vertex="1">
          <mxGeometry x="169.5" y="583" width="120" height="45" as="geometry" />
        </mxCell>
        <mxCell id="NGdMQY6MfUtfwmmD_sof-123" value="BAI" style="text;html=1;align=center;verticalAlign=middle;whiteSpace=wrap;rounded=0;" parent="1" vertex="1">
          <mxGeometry x="229.5" y="508" width="60" height="30" as="geometry" />
        </mxCell>
        <mxCell id="NGdMQY6MfUtfwmmD_sof-125" value="EZ" style="text;html=1;align=center;verticalAlign=middle;whiteSpace=wrap;rounded=0;" parent="1" vertex="1">
          <mxGeometry x="357" y="510" width="60" height="30" as="geometry" />
        </mxCell>
        <mxCell id="NGdMQY6MfUtfwmmD_sof-219" style="edgeStyle=orthogonalEdgeStyle;rounded=0;orthogonalLoop=1;jettySize=auto;html=1;exitX=0;exitY=0.5;exitDx=0;exitDy=0;entryX=0;entryY=0.5;entryDx=0;entryDy=0;" parent="1" source="NGdMQY6MfUtfwmmD_sof-131" target="NGdMQY6MfUtfwmmD_sof-116" edge="1">
          <mxGeometry relative="1" as="geometry">
            <Array as="points">
              <mxPoint x="150" y="670" />
              <mxPoint x="150" y="198" />
            </Array>
          </mxGeometry>
        </mxCell>
        <mxCell id="NGdMQY6MfUtfwmmD_sof-131" value="IDATZI &quot;Ez da aukera zuzena. Saiatu berriro&quot;" style="shape=parallelogram;perimeter=parallelogramPerimeter;whiteSpace=wrap;html=1;fixedSize=1;" parent="1" vertex="1">
          <mxGeometry x="244.5" y="650" width="160" height="40" as="geometry" />
        </mxCell>
        <mxCell id="NGdMQY6MfUtfwmmD_sof-142" value="Menup()" style="shape=process;whiteSpace=wrap;html=1;backgroundOutline=1;" parent="1" vertex="1">
          <mxGeometry x="373.25" y="287.5" width="94.25" height="32.5" as="geometry" />
        </mxCell>
        <mxCell id="NGdMQY6MfUtfwmmD_sof-147" style="edgeStyle=orthogonalEdgeStyle;rounded=0;orthogonalLoop=1;jettySize=auto;html=1;exitX=0.5;exitY=1;exitDx=0;exitDy=0;entryX=0.5;entryY=0;entryDx=0;entryDy=0;" parent="1" source="NGdMQY6MfUtfwmmD_sof-148" target="NGdMQY6MfUtfwmmD_sof-150" edge="1">
          <mxGeometry relative="1" as="geometry" />
        </mxCell>
        <mxCell id="NGdMQY6MfUtfwmmD_sof-148" value="LangileMenua()" style="rounded=1;whiteSpace=wrap;html=1;" parent="1" vertex="1">
          <mxGeometry x="697" y="40" width="120" height="60" as="geometry" />
        </mxCell>
        <mxCell id="NGdMQY6MfUtfwmmD_sof-149" style="edgeStyle=orthogonalEdgeStyle;rounded=0;orthogonalLoop=1;jettySize=auto;html=1;exitX=0.5;exitY=1;exitDx=0;exitDy=0;entryX=0.5;entryY=0;entryDx=0;entryDy=0;" parent="1" source="NGdMQY6MfUtfwmmD_sof-150" target="NGdMQY6MfUtfwmmD_sof-160" edge="1">
          <mxGeometry relative="1" as="geometry" />
        </mxCell>
        <mxCell id="NGdMQY6MfUtfwmmD_sof-150" value="menu4 = &quot;0&quot;" style="rounded=0;whiteSpace=wrap;html=1;" parent="1" vertex="1">
          <mxGeometry x="715.75" y="120" width="90" height="41.5" as="geometry" />
        </mxCell>
        <mxCell id="NGdMQY6MfUtfwmmD_sof-151" style="edgeStyle=orthogonalEdgeStyle;rounded=0;orthogonalLoop=1;jettySize=auto;html=1;exitX=0;exitY=0.5;exitDx=0;exitDy=0;entryX=0.5;entryY=0;entryDx=0;entryDy=0;" parent="1" source="NGdMQY6MfUtfwmmD_sof-152" target="NGdMQY6MfUtfwmmD_sof-155" edge="1">
          <mxGeometry relative="1" as="geometry">
            <Array as="points">
              <mxPoint x="667" y="265" />
              <mxPoint x="667" y="325" />
              <mxPoint x="765" y="325" />
            </Array>
          </mxGeometry>
        </mxCell>
        <mxCell id="NGdMQY6MfUtfwmmD_sof-220" style="edgeStyle=orthogonalEdgeStyle;rounded=0;orthogonalLoop=1;jettySize=auto;html=1;exitX=1;exitY=0.5;exitDx=0;exitDy=0;entryX=0.5;entryY=0;entryDx=0;entryDy=0;" parent="1" source="NGdMQY6MfUtfwmmD_sof-152" target="NGdMQY6MfUtfwmmD_sof-176" edge="1">
          <mxGeometry relative="1" as="geometry" />
        </mxCell>
        <mxCell id="NGdMQY6MfUtfwmmD_sof-152" value="menu4 != &quot;3&quot;" style="rhombus;whiteSpace=wrap;html=1;" parent="1" vertex="1">
          <mxGeometry x="712" y="235" width="105" height="60" as="geometry" />
        </mxCell>
        <mxCell id="NGdMQY6MfUtfwmmD_sof-153" style="edgeStyle=orthogonalEdgeStyle;rounded=0;orthogonalLoop=1;jettySize=auto;html=1;exitX=0;exitY=0.5;exitDx=0;exitDy=0;entryX=0.5;entryY=0;entryDx=0;entryDy=0;" parent="1" source="NGdMQY6MfUtfwmmD_sof-155" target="NGdMQY6MfUtfwmmD_sof-158" edge="1">
          <mxGeometry relative="1" as="geometry" />
        </mxCell>
        <mxCell id="NGdMQY6MfUtfwmmD_sof-154" style="edgeStyle=orthogonalEdgeStyle;rounded=0;orthogonalLoop=1;jettySize=auto;html=1;exitX=1;exitY=0.5;exitDx=0;exitDy=0;entryX=0.5;entryY=0;entryDx=0;entryDy=0;" parent="1" source="NGdMQY6MfUtfwmmD_sof-155" target="NGdMQY6MfUtfwmmD_sof-164" edge="1">
          <mxGeometry relative="1" as="geometry">
            <Array as="points">
              <mxPoint x="847" y="390" />
              <mxPoint x="847" y="464" />
              <mxPoint x="765" y="464" />
            </Array>
          </mxGeometry>
        </mxCell>
        <mxCell id="NGdMQY6MfUtfwmmD_sof-155" value="menu4 = &quot;1&quot;" style="rhombus;whiteSpace=wrap;html=1;" parent="1" vertex="1">
          <mxGeometry x="715.75" y="355" width="97.5" height="70" as="geometry" />
        </mxCell>
        <mxCell id="NGdMQY6MfUtfwmmD_sof-156" value="BAI" style="text;html=1;align=center;verticalAlign=middle;whiteSpace=wrap;rounded=0;" parent="1" vertex="1">
          <mxGeometry x="659.5" y="235" width="60" height="30" as="geometry" />
        </mxCell>
        <mxCell id="NGdMQY6MfUtfwmmD_sof-157" style="edgeStyle=orthogonalEdgeStyle;rounded=0;orthogonalLoop=1;jettySize=auto;html=1;exitX=0;exitY=0.5;exitDx=0;exitDy=0;entryX=0;entryY=0.5;entryDx=0;entryDy=0;" parent="1" source="NGdMQY6MfUtfwmmD_sof-158" target="NGdMQY6MfUtfwmmD_sof-160" edge="1">
          <mxGeometry relative="1" as="geometry">
            <Array as="points">
              <mxPoint x="590" y="458" />
              <mxPoint x="590" y="198" />
            </Array>
          </mxGeometry>
        </mxCell>
        <mxCell id="NGdMQY6MfUtfwmmD_sof-158" value="Langilea()" style="shape=process;whiteSpace=wrap;html=1;backgroundOutline=1;" parent="1" vertex="1">
          <mxGeometry x="614.25" y="435" width="110.5" height="45" as="geometry" />
        </mxCell>
        <mxCell id="NGdMQY6MfUtfwmmD_sof-159" style="edgeStyle=orthogonalEdgeStyle;rounded=0;orthogonalLoop=1;jettySize=auto;html=1;exitX=0.5;exitY=1;exitDx=0;exitDy=0;entryX=0.5;entryY=0;entryDx=0;entryDy=0;" parent="1" source="NGdMQY6MfUtfwmmD_sof-160" target="NGdMQY6MfUtfwmmD_sof-152" edge="1">
          <mxGeometry relative="1" as="geometry" />
        </mxCell>
        <mxCell id="NGdMQY6MfUtfwmmD_sof-160" value="IRAKURRi menu4" style="shape=parallelogram;perimeter=parallelogramPerimeter;whiteSpace=wrap;html=1;fixedSize=1;" parent="1" vertex="1">
          <mxGeometry x="697" y="182.5" width="133" height="30" as="geometry" />
        </mxCell>
        <mxCell id="NGdMQY6MfUtfwmmD_sof-161" value="BAI" style="text;html=1;align=center;verticalAlign=middle;whiteSpace=wrap;rounded=0;" parent="1" vertex="1">
          <mxGeometry x="669.5" y="360" width="60" height="30" as="geometry" />
        </mxCell>
        <mxCell id="NGdMQY6MfUtfwmmD_sof-162" value="EZ" style="text;html=1;align=center;verticalAlign=middle;whiteSpace=wrap;rounded=0;" parent="1" vertex="1">
          <mxGeometry x="797" y="360" width="60" height="30" as="geometry" />
        </mxCell>
        <mxCell id="NGdMQY6MfUtfwmmD_sof-163" style="edgeStyle=orthogonalEdgeStyle;rounded=0;orthogonalLoop=1;jettySize=auto;html=1;exitX=0;exitY=0.5;exitDx=0;exitDy=0;entryX=0.5;entryY=0;entryDx=0;entryDy=0;" parent="1" source="NGdMQY6MfUtfwmmD_sof-164" target="NGdMQY6MfUtfwmmD_sof-166" edge="1">
          <mxGeometry relative="1" as="geometry" />
        </mxCell>
        <mxCell id="NGdMQY6MfUtfwmmD_sof-164" value="menu4 = &quot;2&quot;" style="rhombus;whiteSpace=wrap;html=1;" parent="1" vertex="1">
          <mxGeometry x="715.75" y="503" width="97.5" height="70" as="geometry" />
        </mxCell>
        <mxCell id="NGdMQY6MfUtfwmmD_sof-165" style="edgeStyle=orthogonalEdgeStyle;rounded=0;orthogonalLoop=1;jettySize=auto;html=1;exitX=0;exitY=0.5;exitDx=0;exitDy=0;entryX=0;entryY=0.5;entryDx=0;entryDy=0;" parent="1" source="NGdMQY6MfUtfwmmD_sof-166" target="NGdMQY6MfUtfwmmD_sof-160" edge="1">
          <mxGeometry relative="1" as="geometry">
            <Array as="points">
              <mxPoint x="590" y="606" />
              <mxPoint x="590" y="198" />
            </Array>
          </mxGeometry>
        </mxCell>
        <mxCell id="NGdMQY6MfUtfwmmD_sof-166" value="LangileNagusi()" style="shape=process;whiteSpace=wrap;html=1;backgroundOutline=1;" parent="1" vertex="1">
          <mxGeometry x="609.5" y="583" width="120" height="45" as="geometry" />
        </mxCell>
        <mxCell id="NGdMQY6MfUtfwmmD_sof-167" value="BAI" style="text;html=1;align=center;verticalAlign=middle;whiteSpace=wrap;rounded=0;" parent="1" vertex="1">
          <mxGeometry x="669.5" y="508" width="60" height="30" as="geometry" />
        </mxCell>
        <mxCell id="NGdMQY6MfUtfwmmD_sof-222" style="edgeStyle=orthogonalEdgeStyle;rounded=0;orthogonalLoop=1;jettySize=auto;html=1;exitX=0.25;exitY=1;exitDx=0;exitDy=0;entryX=0.5;entryY=0;entryDx=0;entryDy=0;" parent="1" source="NGdMQY6MfUtfwmmD_sof-169" target="NGdMQY6MfUtfwmmD_sof-174" edge="1">
          <mxGeometry relative="1" as="geometry">
            <Array as="points">
              <mxPoint x="850" y="538" />
              <mxPoint x="850" y="599" />
              <mxPoint x="765" y="599" />
            </Array>
          </mxGeometry>
        </mxCell>
        <mxCell id="NGdMQY6MfUtfwmmD_sof-169" value="EZ" style="text;html=1;align=center;verticalAlign=middle;whiteSpace=wrap;rounded=0;" parent="1" vertex="1">
          <mxGeometry x="797" y="508" width="60" height="30" as="geometry" />
        </mxCell>
        <mxCell id="NGdMQY6MfUtfwmmD_sof-223" style="edgeStyle=orthogonalEdgeStyle;rounded=0;orthogonalLoop=1;jettySize=auto;html=1;exitX=0;exitY=0.5;exitDx=0;exitDy=0;entryX=0;entryY=0.5;entryDx=0;entryDy=0;" parent="1" source="NGdMQY6MfUtfwmmD_sof-174" target="NGdMQY6MfUtfwmmD_sof-160" edge="1">
          <mxGeometry relative="1" as="geometry">
            <Array as="points">
              <mxPoint x="590" y="680" />
              <mxPoint x="590" y="198" />
            </Array>
          </mxGeometry>
        </mxCell>
        <mxCell id="NGdMQY6MfUtfwmmD_sof-174" value="IDATZI &quot;Ez da aukera zuzena. Saiatu berriro&quot;" style="shape=parallelogram;perimeter=parallelogramPerimeter;whiteSpace=wrap;html=1;fixedSize=1;" parent="1" vertex="1">
          <mxGeometry x="684.5" y="660" width="160" height="40" as="geometry" />
        </mxCell>
        <mxCell id="NGdMQY6MfUtfwmmD_sof-176" value="Menup()" style="shape=process;whiteSpace=wrap;html=1;backgroundOutline=1;" parent="1" vertex="1">
          <mxGeometry x="813.25" y="287.5" width="94.25" height="32.5" as="geometry" />
        </mxCell>
        <mxCell id="NGdMQY6MfUtfwmmD_sof-178" style="edgeStyle=orthogonalEdgeStyle;rounded=0;orthogonalLoop=1;jettySize=auto;html=1;exitX=0.5;exitY=1;exitDx=0;exitDy=0;entryX=0.5;entryY=0;entryDx=0;entryDy=0;" parent="1" source="NGdMQY6MfUtfwmmD_sof-179" target="NGdMQY6MfUtfwmmD_sof-181" edge="1">
          <mxGeometry relative="1" as="geometry" />
        </mxCell>
        <mxCell id="NGdMQY6MfUtfwmmD_sof-179" value="MenuFitxategiak()" style="rounded=1;whiteSpace=wrap;html=1;" parent="1" vertex="1">
          <mxGeometry x="1197" y="40" width="120" height="60" as="geometry" />
        </mxCell>
        <mxCell id="NGdMQY6MfUtfwmmD_sof-180" style="edgeStyle=orthogonalEdgeStyle;rounded=0;orthogonalLoop=1;jettySize=auto;html=1;exitX=0.5;exitY=1;exitDx=0;exitDy=0;entryX=0.5;entryY=0;entryDx=0;entryDy=0;" parent="1" source="NGdMQY6MfUtfwmmD_sof-181" target="NGdMQY6MfUtfwmmD_sof-191" edge="1">
          <mxGeometry relative="1" as="geometry" />
        </mxCell>
        <mxCell id="NGdMQY6MfUtfwmmD_sof-181" value="menu2 = &quot;0&quot;" style="rounded=0;whiteSpace=wrap;html=1;" parent="1" vertex="1">
          <mxGeometry x="1215.75" y="120" width="90" height="41.5" as="geometry" />
        </mxCell>
        <mxCell id="NGdMQY6MfUtfwmmD_sof-182" style="edgeStyle=orthogonalEdgeStyle;rounded=0;orthogonalLoop=1;jettySize=auto;html=1;exitX=0;exitY=0.5;exitDx=0;exitDy=0;entryX=0.5;entryY=0;entryDx=0;entryDy=0;" parent="1" source="NGdMQY6MfUtfwmmD_sof-183" target="NGdMQY6MfUtfwmmD_sof-186" edge="1">
          <mxGeometry relative="1" as="geometry">
            <Array as="points">
              <mxPoint x="1167" y="265" />
              <mxPoint x="1167" y="325" />
              <mxPoint x="1265" y="325" />
            </Array>
          </mxGeometry>
        </mxCell>
        <mxCell id="NGdMQY6MfUtfwmmD_sof-227" style="edgeStyle=orthogonalEdgeStyle;rounded=0;orthogonalLoop=1;jettySize=auto;html=1;exitX=1;exitY=0.5;exitDx=0;exitDy=0;entryX=0.5;entryY=0;entryDx=0;entryDy=0;" parent="1" source="NGdMQY6MfUtfwmmD_sof-183" target="NGdMQY6MfUtfwmmD_sof-207" edge="1">
          <mxGeometry relative="1" as="geometry" />
        </mxCell>
        <mxCell id="NGdMQY6MfUtfwmmD_sof-183" value="menu2 != &quot;6&quot;" style="rhombus;whiteSpace=wrap;html=1;" parent="1" vertex="1">
          <mxGeometry x="1212" y="235" width="105" height="60" as="geometry" />
        </mxCell>
        <mxCell id="NGdMQY6MfUtfwmmD_sof-184" style="edgeStyle=orthogonalEdgeStyle;rounded=0;orthogonalLoop=1;jettySize=auto;html=1;exitX=0;exitY=0.5;exitDx=0;exitDy=0;entryX=0.5;entryY=0;entryDx=0;entryDy=0;" parent="1" source="NGdMQY6MfUtfwmmD_sof-186" target="NGdMQY6MfUtfwmmD_sof-189" edge="1">
          <mxGeometry relative="1" as="geometry" />
        </mxCell>
        <mxCell id="NGdMQY6MfUtfwmmD_sof-185" style="edgeStyle=orthogonalEdgeStyle;rounded=0;orthogonalLoop=1;jettySize=auto;html=1;exitX=1;exitY=0.5;exitDx=0;exitDy=0;entryX=0.5;entryY=0;entryDx=0;entryDy=0;" parent="1" source="NGdMQY6MfUtfwmmD_sof-186" target="NGdMQY6MfUtfwmmD_sof-195" edge="1">
          <mxGeometry relative="1" as="geometry">
            <Array as="points">
              <mxPoint x="1347" y="390" />
              <mxPoint x="1347" y="464" />
              <mxPoint x="1265" y="464" />
            </Array>
          </mxGeometry>
        </mxCell>
        <mxCell id="NGdMQY6MfUtfwmmD_sof-186" value="menu2 = &quot;1&quot;" style="rhombus;whiteSpace=wrap;html=1;" parent="1" vertex="1">
          <mxGeometry x="1215.75" y="355" width="97.5" height="70" as="geometry" />
        </mxCell>
        <mxCell id="NGdMQY6MfUtfwmmD_sof-187" value="BAI" style="text;html=1;align=center;verticalAlign=middle;whiteSpace=wrap;rounded=0;" parent="1" vertex="1">
          <mxGeometry x="1159.5" y="235" width="60" height="30" as="geometry" />
        </mxCell>
        <mxCell id="NGdMQY6MfUtfwmmD_sof-188" style="edgeStyle=orthogonalEdgeStyle;rounded=0;orthogonalLoop=1;jettySize=auto;html=1;exitX=0;exitY=0.5;exitDx=0;exitDy=0;entryX=0;entryY=0.5;entryDx=0;entryDy=0;" parent="1" source="NGdMQY6MfUtfwmmD_sof-189" target="NGdMQY6MfUtfwmmD_sof-191" edge="1">
          <mxGeometry relative="1" as="geometry">
            <Array as="points">
              <mxPoint x="970" y="458" />
              <mxPoint x="970" y="198" />
            </Array>
          </mxGeometry>
        </mxCell>
        <mxCell id="NGdMQY6MfUtfwmmD_sof-189" value="Kontsultak(&quot;LANGILE&quot;)" style="shape=process;whiteSpace=wrap;html=1;backgroundOutline=1;" parent="1" vertex="1">
          <mxGeometry x="1080" y="435" width="160.5" height="45" as="geometry" />
        </mxCell>
        <mxCell id="NGdMQY6MfUtfwmmD_sof-190" style="edgeStyle=orthogonalEdgeStyle;rounded=0;orthogonalLoop=1;jettySize=auto;html=1;exitX=0.5;exitY=1;exitDx=0;exitDy=0;entryX=0.5;entryY=0;entryDx=0;entryDy=0;" parent="1" source="NGdMQY6MfUtfwmmD_sof-191" target="NGdMQY6MfUtfwmmD_sof-183" edge="1">
          <mxGeometry relative="1" as="geometry" />
        </mxCell>
        <mxCell id="NGdMQY6MfUtfwmmD_sof-191" value="IRAKURRi menu2" style="shape=parallelogram;perimeter=parallelogramPerimeter;whiteSpace=wrap;html=1;fixedSize=1;" parent="1" vertex="1">
          <mxGeometry x="1197" y="182.5" width="133" height="30" as="geometry" />
        </mxCell>
        <mxCell id="NGdMQY6MfUtfwmmD_sof-192" value="BAI" style="text;html=1;align=center;verticalAlign=middle;whiteSpace=wrap;rounded=0;" parent="1" vertex="1">
          <mxGeometry x="1169.5" y="360" width="60" height="30" as="geometry" />
        </mxCell>
        <mxCell id="NGdMQY6MfUtfwmmD_sof-193" value="EZ" style="text;html=1;align=center;verticalAlign=middle;whiteSpace=wrap;rounded=0;" parent="1" vertex="1">
          <mxGeometry x="1297" y="360" width="60" height="30" as="geometry" />
        </mxCell>
        <mxCell id="NGdMQY6MfUtfwmmD_sof-194" style="edgeStyle=orthogonalEdgeStyle;rounded=0;orthogonalLoop=1;jettySize=auto;html=1;exitX=0;exitY=0.5;exitDx=0;exitDy=0;entryX=0.5;entryY=0;entryDx=0;entryDy=0;" parent="1" source="NGdMQY6MfUtfwmmD_sof-195" target="NGdMQY6MfUtfwmmD_sof-197" edge="1">
          <mxGeometry relative="1" as="geometry" />
        </mxCell>
        <mxCell id="NGdMQY6MfUtfwmmD_sof-195" value="menu2 = &quot;2&quot;" style="rhombus;whiteSpace=wrap;html=1;" parent="1" vertex="1">
          <mxGeometry x="1215.75" y="503" width="97.5" height="70" as="geometry" />
        </mxCell>
        <mxCell id="NGdMQY6MfUtfwmmD_sof-196" style="edgeStyle=orthogonalEdgeStyle;rounded=0;orthogonalLoop=1;jettySize=auto;html=1;exitX=0;exitY=0.5;exitDx=0;exitDy=0;entryX=0;entryY=0.5;entryDx=0;entryDy=0;" parent="1" source="NGdMQY6MfUtfwmmD_sof-197" target="NGdMQY6MfUtfwmmD_sof-191" edge="1">
          <mxGeometry relative="1" as="geometry">
            <Array as="points">
              <mxPoint x="1077" y="606" />
              <mxPoint x="970" y="606" />
              <mxPoint x="970" y="198" />
            </Array>
          </mxGeometry>
        </mxCell>
        <mxCell id="NGdMQY6MfUtfwmmD_sof-197" value="Kontsultak(&quot;BEZERO&quot;)" style="shape=process;whiteSpace=wrap;html=1;backgroundOutline=1;" parent="1" vertex="1">
          <mxGeometry x="1077" y="585" width="163" height="45" as="geometry" />
        </mxCell>
        <mxCell id="NGdMQY6MfUtfwmmD_sof-198" value="BAI" style="text;html=1;align=center;verticalAlign=middle;whiteSpace=wrap;rounded=0;" parent="1" vertex="1">
          <mxGeometry x="1169.5" y="508" width="60" height="30" as="geometry" />
        </mxCell>
        <mxCell id="NGdMQY6MfUtfwmmD_sof-235" style="edgeStyle=orthogonalEdgeStyle;rounded=0;orthogonalLoop=1;jettySize=auto;html=1;exitX=0.25;exitY=1;exitDx=0;exitDy=0;entryX=0.5;entryY=0;entryDx=0;entryDy=0;" parent="1" source="NGdMQY6MfUtfwmmD_sof-200" target="NGdMQY6MfUtfwmmD_sof-231" edge="1">
          <mxGeometry relative="1" as="geometry">
            <Array as="points">
              <mxPoint x="1350" y="538" />
              <mxPoint x="1350" y="589" />
              <mxPoint x="1265" y="589" />
            </Array>
          </mxGeometry>
        </mxCell>
        <mxCell id="NGdMQY6MfUtfwmmD_sof-200" value="EZ" style="text;html=1;align=center;verticalAlign=middle;whiteSpace=wrap;rounded=0;" parent="1" vertex="1">
          <mxGeometry x="1297" y="508" width="60" height="30" as="geometry" />
        </mxCell>
        <mxCell id="NGdMQY6MfUtfwmmD_sof-253" style="edgeStyle=orthogonalEdgeStyle;rounded=0;orthogonalLoop=1;jettySize=auto;html=1;exitX=0;exitY=0.5;exitDx=0;exitDy=0;entryX=0;entryY=0.5;entryDx=0;entryDy=0;" parent="1" source="NGdMQY6MfUtfwmmD_sof-205" target="NGdMQY6MfUtfwmmD_sof-191" edge="1">
          <mxGeometry relative="1" as="geometry">
            <Array as="points">
              <mxPoint x="970" y="1090" />
              <mxPoint x="970" y="198" />
            </Array>
          </mxGeometry>
        </mxCell>
        <mxCell id="NGdMQY6MfUtfwmmD_sof-205" value="IDATZI &quot;Ez da aukera zuzena. Saiatu berriro&quot;" style="shape=parallelogram;perimeter=parallelogramPerimeter;whiteSpace=wrap;html=1;fixedSize=1;" parent="1" vertex="1">
          <mxGeometry x="1184.5" y="1070" width="160" height="40" as="geometry" />
        </mxCell>
        <mxCell id="NGdMQY6MfUtfwmmD_sof-207" value="Menup()" style="shape=process;whiteSpace=wrap;html=1;backgroundOutline=1;" parent="1" vertex="1">
          <mxGeometry x="1313.25" y="287.5" width="94.25" height="32.5" as="geometry" />
        </mxCell>
        <mxCell id="NGdMQY6MfUtfwmmD_sof-209" value="Login = false" style="rounded=0;whiteSpace=wrap;html=1;" parent="1" vertex="1">
          <mxGeometry x="-100" y="295" width="97.5" height="35" as="geometry" />
        </mxCell>
        <mxCell id="NGdMQY6MfUtfwmmD_sof-212" style="edgeStyle=orthogonalEdgeStyle;rounded=0;orthogonalLoop=1;jettySize=auto;html=1;exitX=0;exitY=1;exitDx=0;exitDy=0;entryX=0.5;entryY=0;entryDx=0;entryDy=0;" parent="1" source="NGdMQY6MfUtfwmmD_sof-211" target="NGdMQY6MfUtfwmmD_sof-209" edge="1">
          <mxGeometry relative="1" as="geometry">
            <Array as="points">
              <mxPoint x="-51" y="265" />
            </Array>
          </mxGeometry>
        </mxCell>
        <mxCell id="NGdMQY6MfUtfwmmD_sof-211" value="EZ" style="text;html=1;align=center;verticalAlign=middle;whiteSpace=wrap;rounded=0;" parent="1" vertex="1">
          <mxGeometry x="-103.75" y="235" width="60" height="30" as="geometry" />
        </mxCell>
        <mxCell id="NGdMQY6MfUtfwmmD_sof-217" value="EZ" style="text;html=1;align=center;verticalAlign=middle;whiteSpace=wrap;rounded=0;" parent="1" vertex="1">
          <mxGeometry x="368.75" y="235" width="60" height="30" as="geometry" />
        </mxCell>
        <mxCell id="NGdMQY6MfUtfwmmD_sof-221" value="EZ" style="text;html=1;align=center;verticalAlign=middle;whiteSpace=wrap;rounded=0;" parent="1" vertex="1">
          <mxGeometry x="808.75" y="235" width="60" height="30" as="geometry" />
        </mxCell>
        <mxCell id="NGdMQY6MfUtfwmmD_sof-229" value="EZ" style="text;html=1;align=center;verticalAlign=middle;whiteSpace=wrap;rounded=0;" parent="1" vertex="1">
          <mxGeometry x="1305.75" y="235" width="60" height="30" as="geometry" />
        </mxCell>
        <mxCell id="NGdMQY6MfUtfwmmD_sof-230" style="edgeStyle=orthogonalEdgeStyle;rounded=0;orthogonalLoop=1;jettySize=auto;html=1;exitX=0;exitY=0.5;exitDx=0;exitDy=0;entryX=0.5;entryY=0;entryDx=0;entryDy=0;" parent="1" source="NGdMQY6MfUtfwmmD_sof-231" target="NGdMQY6MfUtfwmmD_sof-232" edge="1">
          <mxGeometry relative="1" as="geometry" />
        </mxCell>
        <mxCell id="NGdMQY6MfUtfwmmD_sof-231" value="menu2 = &quot;3&quot;" style="rhombus;whiteSpace=wrap;html=1;" parent="1" vertex="1">
          <mxGeometry x="1215.75" y="640" width="97.5" height="70" as="geometry" />
        </mxCell>
        <mxCell id="NGdMQY6MfUtfwmmD_sof-243" style="edgeStyle=orthogonalEdgeStyle;rounded=0;orthogonalLoop=1;jettySize=auto;html=1;exitX=0;exitY=0.5;exitDx=0;exitDy=0;entryX=0;entryY=0.5;entryDx=0;entryDy=0;" parent="1" source="NGdMQY6MfUtfwmmD_sof-232" target="NGdMQY6MfUtfwmmD_sof-191" edge="1">
          <mxGeometry relative="1" as="geometry">
            <Array as="points">
              <mxPoint x="970" y="743" />
              <mxPoint x="970" y="198" />
            </Array>
          </mxGeometry>
        </mxCell>
        <mxCell id="NGdMQY6MfUtfwmmD_sof-232" value="Kontsultak(&quot;BEZERO_TELEFONO&quot;)" style="shape=process;whiteSpace=wrap;html=1;backgroundOutline=1;" parent="1" vertex="1">
          <mxGeometry x="990" y="720" width="250.5" height="45" as="geometry" />
        </mxCell>
        <mxCell id="NGdMQY6MfUtfwmmD_sof-233" value="BAI" style="text;html=1;align=center;verticalAlign=middle;whiteSpace=wrap;rounded=0;" parent="1" vertex="1">
          <mxGeometry x="1169.5" y="645" width="60" height="30" as="geometry" />
        </mxCell>
        <mxCell id="NGdMQY6MfUtfwmmD_sof-241" style="edgeStyle=orthogonalEdgeStyle;rounded=0;orthogonalLoop=1;jettySize=auto;html=1;exitX=0.25;exitY=1;exitDx=0;exitDy=0;entryX=0.5;entryY=0;entryDx=0;entryDy=0;" parent="1" source="NGdMQY6MfUtfwmmD_sof-234" target="NGdMQY6MfUtfwmmD_sof-237" edge="1">
          <mxGeometry relative="1" as="geometry">
            <Array as="points">
              <mxPoint x="1350" y="675" />
              <mxPoint x="1350" y="728" />
              <mxPoint x="1265" y="728" />
            </Array>
          </mxGeometry>
        </mxCell>
        <mxCell id="NGdMQY6MfUtfwmmD_sof-234" value="EZ" style="text;html=1;align=center;verticalAlign=middle;whiteSpace=wrap;rounded=0;" parent="1" vertex="1">
          <mxGeometry x="1297" y="645" width="60" height="30" as="geometry" />
        </mxCell>
        <mxCell id="NGdMQY6MfUtfwmmD_sof-236" style="edgeStyle=orthogonalEdgeStyle;rounded=0;orthogonalLoop=1;jettySize=auto;html=1;exitX=0;exitY=0.5;exitDx=0;exitDy=0;entryX=0.5;entryY=0;entryDx=0;entryDy=0;" parent="1" source="NGdMQY6MfUtfwmmD_sof-237" target="NGdMQY6MfUtfwmmD_sof-238" edge="1">
          <mxGeometry relative="1" as="geometry" />
        </mxCell>
        <mxCell id="NGdMQY6MfUtfwmmD_sof-237" value="menu2 = &quot;4&quot;" style="rhombus;whiteSpace=wrap;html=1;" parent="1" vertex="1">
          <mxGeometry x="1215.75" y="780" width="97.5" height="70" as="geometry" />
        </mxCell>
        <mxCell id="NGdMQY6MfUtfwmmD_sof-244" style="edgeStyle=orthogonalEdgeStyle;rounded=0;orthogonalLoop=1;jettySize=auto;html=1;exitX=0;exitY=0.5;exitDx=0;exitDy=0;entryX=0;entryY=0.5;entryDx=0;entryDy=0;" parent="1" source="NGdMQY6MfUtfwmmD_sof-238" target="NGdMQY6MfUtfwmmD_sof-191" edge="1">
          <mxGeometry relative="1" as="geometry">
            <Array as="points">
              <mxPoint x="970" y="883" />
              <mxPoint x="970" y="198" />
            </Array>
          </mxGeometry>
        </mxCell>
        <mxCell id="NGdMQY6MfUtfwmmD_sof-238" value="Kontsultak(&quot;ESKARI&quot;)" style="shape=process;whiteSpace=wrap;html=1;backgroundOutline=1;" parent="1" vertex="1">
          <mxGeometry x="1070" y="860" width="159.5" height="45" as="geometry" />
        </mxCell>
        <mxCell id="NGdMQY6MfUtfwmmD_sof-239" value="BAI" style="text;html=1;align=center;verticalAlign=middle;whiteSpace=wrap;rounded=0;" parent="1" vertex="1">
          <mxGeometry x="1169.5" y="785" width="60" height="30" as="geometry" />
        </mxCell>
        <mxCell id="NGdMQY6MfUtfwmmD_sof-251" style="edgeStyle=orthogonalEdgeStyle;rounded=0;orthogonalLoop=1;jettySize=auto;html=1;exitX=0.25;exitY=1;exitDx=0;exitDy=0;entryX=0.5;entryY=0;entryDx=0;entryDy=0;" parent="1" source="NGdMQY6MfUtfwmmD_sof-240" target="NGdMQY6MfUtfwmmD_sof-247" edge="1">
          <mxGeometry relative="1" as="geometry">
            <Array as="points">
              <mxPoint x="1350" y="815" />
              <mxPoint x="1350" y="868" />
              <mxPoint x="1265" y="868" />
            </Array>
          </mxGeometry>
        </mxCell>
        <mxCell id="NGdMQY6MfUtfwmmD_sof-240" value="EZ" style="text;html=1;align=center;verticalAlign=middle;whiteSpace=wrap;rounded=0;" parent="1" vertex="1">
          <mxGeometry x="1297" y="785" width="60" height="30" as="geometry" />
        </mxCell>
        <mxCell id="NGdMQY6MfUtfwmmD_sof-246" style="edgeStyle=orthogonalEdgeStyle;rounded=0;orthogonalLoop=1;jettySize=auto;html=1;exitX=0;exitY=0.5;exitDx=0;exitDy=0;entryX=0.5;entryY=0;entryDx=0;entryDy=0;" parent="1" source="NGdMQY6MfUtfwmmD_sof-247" target="NGdMQY6MfUtfwmmD_sof-248" edge="1">
          <mxGeometry relative="1" as="geometry" />
        </mxCell>
        <mxCell id="NGdMQY6MfUtfwmmD_sof-247" value="menu2 = &quot;5&quot;" style="rhombus;whiteSpace=wrap;html=1;" parent="1" vertex="1">
          <mxGeometry x="1215.75" y="920" width="97.5" height="70" as="geometry" />
        </mxCell>
        <mxCell id="NGdMQY6MfUtfwmmD_sof-248" value="Kontsultak(&quot;ESKARI_LERRO&quot;)" style="shape=process;whiteSpace=wrap;html=1;backgroundOutline=1;" parent="1" vertex="1">
          <mxGeometry x="1000" y="1000" width="219.5" height="45" as="geometry" />
        </mxCell>
        <mxCell id="NGdMQY6MfUtfwmmD_sof-249" value="BAI" style="text;html=1;align=center;verticalAlign=middle;whiteSpace=wrap;rounded=0;" parent="1" vertex="1">
          <mxGeometry x="1169.5" y="925" width="60" height="30" as="geometry" />
        </mxCell>
        <mxCell id="NGdMQY6MfUtfwmmD_sof-252" style="edgeStyle=orthogonalEdgeStyle;rounded=0;orthogonalLoop=1;jettySize=auto;html=1;exitX=0.25;exitY=1;exitDx=0;exitDy=0;entryX=0.5;entryY=0;entryDx=0;entryDy=0;" parent="1" source="NGdMQY6MfUtfwmmD_sof-250" target="NGdMQY6MfUtfwmmD_sof-205" edge="1">
          <mxGeometry relative="1" as="geometry">
            <Array as="points">
              <mxPoint x="1350" y="955" />
              <mxPoint x="1350" y="1013" />
              <mxPoint x="1265" y="1013" />
            </Array>
          </mxGeometry>
        </mxCell>
        <mxCell id="NGdMQY6MfUtfwmmD_sof-250" value="EZ" style="text;html=1;align=center;verticalAlign=middle;whiteSpace=wrap;rounded=0;" parent="1" vertex="1">
          <mxGeometry x="1297" y="925" width="60" height="30" as="geometry" />
        </mxCell>
        <mxCell id="NGdMQY6MfUtfwmmD_sof-256" style="edgeStyle=orthogonalEdgeStyle;rounded=0;orthogonalLoop=1;jettySize=auto;html=1;exitX=0.5;exitY=1;exitDx=0;exitDy=0;entryX=0.5;entryY=0;entryDx=0;entryDy=0;" parent="1" source="NGdMQY6MfUtfwmmD_sof-254" target="NGdMQY6MfUtfwmmD_sof-255" edge="1">
          <mxGeometry relative="1" as="geometry" />
        </mxCell>
        <mxCell id="NGdMQY6MfUtfwmmD_sof-254" value="Langilea()" style="rounded=1;whiteSpace=wrap;html=1;" parent="1" vertex="1">
          <mxGeometry x="-1385" y="600" width="120" height="60" as="geometry" />
        </mxCell>
        <mxCell id="NGdMQY6MfUtfwmmD_sof-258" style="edgeStyle=orthogonalEdgeStyle;rounded=0;orthogonalLoop=1;jettySize=auto;html=1;exitX=0.5;exitY=1;exitDx=0;exitDy=0;entryX=0.5;entryY=0;entryDx=0;entryDy=0;" parent="1" source="NGdMQY6MfUtfwmmD_sof-255" target="NGdMQY6MfUtfwmmD_sof-257" edge="1">
          <mxGeometry relative="1" as="geometry" />
        </mxCell>
        <mxCell id="NGdMQY6MfUtfwmmD_sof-255" value="IRAKURRI InIzena&lt;div&gt;IRAKURRI InAbizena&lt;/div&gt;" style="shape=parallelogram;perimeter=parallelogramPerimeter;whiteSpace=wrap;html=1;fixedSize=1;" parent="1" vertex="1">
          <mxGeometry x="-1403.75" y="690" width="157.5" height="50" as="geometry" />
        </mxCell>
        <mxCell id="NGdMQY6MfUtfwmmD_sof-260" style="edgeStyle=orthogonalEdgeStyle;rounded=0;orthogonalLoop=1;jettySize=auto;html=1;exitX=0.5;exitY=1;exitDx=0;exitDy=0;entryX=0.5;entryY=0;entryDx=0;entryDy=0;" parent="1" source="NGdMQY6MfUtfwmmD_sof-257" target="NGdMQY6MfUtfwmmD_sof-259" edge="1">
          <mxGeometry relative="1" as="geometry" />
        </mxCell>
        <mxCell id="NGdMQY6MfUtfwmmD_sof-257" value="langileaAurkitua = false" style="rounded=0;whiteSpace=wrap;html=1;" parent="1" vertex="1">
          <mxGeometry x="-1392.5" y="765" width="135" height="35" as="geometry" />
        </mxCell>
        <mxCell id="NGdMQY6MfUtfwmmD_sof-264" style="edgeStyle=orthogonalEdgeStyle;rounded=0;orthogonalLoop=1;jettySize=auto;html=1;exitX=0;exitY=0.5;exitDx=0;exitDy=0;entryX=0.5;entryY=0;entryDx=0;entryDy=0;" parent="1" source="NGdMQY6MfUtfwmmD_sof-259" target="NGdMQY6MfUtfwmmD_sof-262" edge="1">
          <mxGeometry relative="1" as="geometry" />
        </mxCell>
        <mxCell id="NGdMQY6MfUtfwmmD_sof-265" style="edgeStyle=orthogonalEdgeStyle;rounded=0;orthogonalLoop=1;jettySize=auto;html=1;exitX=1;exitY=0.5;exitDx=0;exitDy=0;entryX=0.5;entryY=0;entryDx=0;entryDy=0;" parent="1" source="NGdMQY6MfUtfwmmD_sof-259" target="NGdMQY6MfUtfwmmD_sof-263" edge="1">
          <mxGeometry relative="1" as="geometry" />
        </mxCell>
        <mxCell id="NGdMQY6MfUtfwmmD_sof-259" value="izena.LANGILE.txt = InIzena &amp;amp;&amp;amp; abizena.LANGILE.txt = InAbizena" style="rhombus;whiteSpace=wrap;html=1;" parent="1" vertex="1">
          <mxGeometry x="-1467.5" y="825" width="285" height="80" as="geometry" />
        </mxCell>
        <mxCell id="NGdMQY6MfUtfwmmD_sof-267" style="edgeStyle=orthogonalEdgeStyle;rounded=0;orthogonalLoop=1;jettySize=auto;html=1;exitX=0.5;exitY=1;exitDx=0;exitDy=0;entryX=0.5;entryY=0;entryDx=0;entryDy=0;" parent="1" source="NGdMQY6MfUtfwmmD_sof-262" target="NGdMQY6MfUtfwmmD_sof-266" edge="1">
          <mxGeometry relative="1" as="geometry" />
        </mxCell>
        <mxCell id="NGdMQY6MfUtfwmmD_sof-262" value="langileaAurkitua = true" style="rounded=0;whiteSpace=wrap;html=1;" parent="1" vertex="1">
          <mxGeometry x="-1560" y="895" width="130" height="35" as="geometry" />
        </mxCell>
        <mxCell id="NGdMQY6MfUtfwmmD_sof-320" style="edgeStyle=orthogonalEdgeStyle;rounded=0;orthogonalLoop=1;jettySize=auto;html=1;exitX=0.5;exitY=1;exitDx=0;exitDy=0;entryX=0.5;entryY=0;entryDx=0;entryDy=0;" parent="1" source="NGdMQY6MfUtfwmmD_sof-263" target="NGdMQY6MfUtfwmmD_sof-319" edge="1">
          <mxGeometry relative="1" as="geometry" />
        </mxCell>
        <mxCell id="NGdMQY6MfUtfwmmD_sof-263" value="langileaAurkitua = false" style="rounded=0;whiteSpace=wrap;html=1;" parent="1" vertex="1">
          <mxGeometry x="-1220" y="895" width="130" height="35" as="geometry" />
        </mxCell>
        <mxCell id="NGdMQY6MfUtfwmmD_sof-266" value="IDATZI LANGILE.txt&lt;div&gt;(Izen abizen horrekin)&lt;/div&gt;" style="shape=parallelogram;perimeter=parallelogramPerimeter;whiteSpace=wrap;html=1;fixedSize=1;" parent="1" vertex="1">
          <mxGeometry x="-1573.75" y="955" width="157.5" height="45" as="geometry" />
        </mxCell>
        <mxCell id="NGdMQY6MfUtfwmmD_sof-270" value="BAI" style="text;html=1;align=center;verticalAlign=middle;whiteSpace=wrap;rounded=0;" parent="1" vertex="1">
          <mxGeometry x="-1510" y="830" width="60" height="30" as="geometry" />
        </mxCell>
        <mxCell id="NGdMQY6MfUtfwmmD_sof-271" value="EZ" style="text;html=1;align=center;verticalAlign=middle;whiteSpace=wrap;rounded=0;" parent="1" vertex="1">
          <mxGeometry x="-1200" y="830" width="60" height="30" as="geometry" />
        </mxCell>
        <mxCell id="NGdMQY6MfUtfwmmD_sof-272" style="edgeStyle=orthogonalEdgeStyle;rounded=0;orthogonalLoop=1;jettySize=auto;html=1;exitX=0.5;exitY=1;exitDx=0;exitDy=0;entryX=0.5;entryY=0;entryDx=0;entryDy=0;" parent="1" source="NGdMQY6MfUtfwmmD_sof-273" target="NGdMQY6MfUtfwmmD_sof-275" edge="1">
          <mxGeometry relative="1" as="geometry" />
        </mxCell>
        <mxCell id="NGdMQY6MfUtfwmmD_sof-273" value="LangileNagusi()" style="rounded=1;whiteSpace=wrap;html=1;" parent="1" vertex="1">
          <mxGeometry x="-857.5" y="600" width="120" height="60" as="geometry" />
        </mxCell>
        <mxCell id="NGdMQY6MfUtfwmmD_sof-274" style="edgeStyle=orthogonalEdgeStyle;rounded=0;orthogonalLoop=1;jettySize=auto;html=1;exitX=0.5;exitY=1;exitDx=0;exitDy=0;entryX=0.5;entryY=0;entryDx=0;entryDy=0;" parent="1" source="NGdMQY6MfUtfwmmD_sof-275" target="NGdMQY6MfUtfwmmD_sof-277" edge="1">
          <mxGeometry relative="1" as="geometry" />
        </mxCell>
        <mxCell id="NGdMQY6MfUtfwmmD_sof-275" value="IRAKURRI InNagusi_id" style="shape=parallelogram;perimeter=parallelogramPerimeter;whiteSpace=wrap;html=1;fixedSize=1;" parent="1" vertex="1">
          <mxGeometry x="-880" y="700" width="165" height="30" as="geometry" />
        </mxCell>
        <mxCell id="NGdMQY6MfUtfwmmD_sof-276" style="edgeStyle=orthogonalEdgeStyle;rounded=0;orthogonalLoop=1;jettySize=auto;html=1;exitX=0.5;exitY=1;exitDx=0;exitDy=0;entryX=0.5;entryY=0;entryDx=0;entryDy=0;" parent="1" source="NGdMQY6MfUtfwmmD_sof-277" target="NGdMQY6MfUtfwmmD_sof-280" edge="1">
          <mxGeometry relative="1" as="geometry" />
        </mxCell>
        <mxCell id="NGdMQY6MfUtfwmmD_sof-277" value="langileaAurkitua = false" style="rounded=0;whiteSpace=wrap;html=1;" parent="1" vertex="1">
          <mxGeometry x="-865" y="765" width="135" height="35" as="geometry" />
        </mxCell>
        <mxCell id="NGdMQY6MfUtfwmmD_sof-278" style="edgeStyle=orthogonalEdgeStyle;rounded=0;orthogonalLoop=1;jettySize=auto;html=1;exitX=0;exitY=0.5;exitDx=0;exitDy=0;entryX=0.5;entryY=0;entryDx=0;entryDy=0;" parent="1" source="NGdMQY6MfUtfwmmD_sof-280" target="NGdMQY6MfUtfwmmD_sof-282" edge="1">
          <mxGeometry relative="1" as="geometry" />
        </mxCell>
        <mxCell id="NGdMQY6MfUtfwmmD_sof-279" style="edgeStyle=orthogonalEdgeStyle;rounded=0;orthogonalLoop=1;jettySize=auto;html=1;exitX=1;exitY=0.5;exitDx=0;exitDy=0;entryX=0.5;entryY=0;entryDx=0;entryDy=0;" parent="1" source="NGdMQY6MfUtfwmmD_sof-280" target="NGdMQY6MfUtfwmmD_sof-283" edge="1">
          <mxGeometry relative="1" as="geometry" />
        </mxCell>
        <mxCell id="NGdMQY6MfUtfwmmD_sof-280" value="izena.LANGILE.txt = InIzena &amp;amp;&amp;amp; abizena.LANGILE.txt = InAbizena" style="rhombus;whiteSpace=wrap;html=1;" parent="1" vertex="1">
          <mxGeometry x="-940" y="825" width="285" height="80" as="geometry" />
        </mxCell>
        <mxCell id="NGdMQY6MfUtfwmmD_sof-281" style="edgeStyle=orthogonalEdgeStyle;rounded=0;orthogonalLoop=1;jettySize=auto;html=1;exitX=0.5;exitY=1;exitDx=0;exitDy=0;entryX=0.5;entryY=0;entryDx=0;entryDy=0;" parent="1" source="NGdMQY6MfUtfwmmD_sof-282" target="NGdMQY6MfUtfwmmD_sof-284" edge="1">
          <mxGeometry relative="1" as="geometry" />
        </mxCell>
        <mxCell id="NGdMQY6MfUtfwmmD_sof-282" value="langileaAurkitua = true" style="rounded=0;whiteSpace=wrap;html=1;" parent="1" vertex="1">
          <mxGeometry x="-1032.5" y="895" width="130" height="35" as="geometry" />
        </mxCell>
        <mxCell id="NGdMQY6MfUtfwmmD_sof-322" style="edgeStyle=orthogonalEdgeStyle;rounded=0;orthogonalLoop=1;jettySize=auto;html=1;exitX=0.5;exitY=1;exitDx=0;exitDy=0;entryX=0.5;entryY=0;entryDx=0;entryDy=0;" parent="1" source="NGdMQY6MfUtfwmmD_sof-283" target="NGdMQY6MfUtfwmmD_sof-321" edge="1">
          <mxGeometry relative="1" as="geometry" />
        </mxCell>
        <mxCell id="NGdMQY6MfUtfwmmD_sof-283" value="langileaAurkitua = false" style="rounded=0;whiteSpace=wrap;html=1;" parent="1" vertex="1">
          <mxGeometry x="-692.5" y="895" width="130" height="35" as="geometry" />
        </mxCell>
        <mxCell id="NGdMQY6MfUtfwmmD_sof-284" value="IDATZI LANGILE.txt&lt;div&gt;(Nagusi id horrekin)&lt;/div&gt;" style="shape=parallelogram;perimeter=parallelogramPerimeter;whiteSpace=wrap;html=1;fixedSize=1;" parent="1" vertex="1">
          <mxGeometry x="-1047.5" y="950" width="160" height="45" as="geometry" />
        </mxCell>
        <mxCell id="NGdMQY6MfUtfwmmD_sof-285" value="BAI" style="text;html=1;align=center;verticalAlign=middle;whiteSpace=wrap;rounded=0;" parent="1" vertex="1">
          <mxGeometry x="-982.5" y="830" width="60" height="30" as="geometry" />
        </mxCell>
        <mxCell id="NGdMQY6MfUtfwmmD_sof-286" value="EZ" style="text;html=1;align=center;verticalAlign=middle;whiteSpace=wrap;rounded=0;" parent="1" vertex="1">
          <mxGeometry x="-672.5" y="830" width="60" height="30" as="geometry" />
        </mxCell>
        <mxCell id="NGdMQY6MfUtfwmmD_sof-303" style="edgeStyle=orthogonalEdgeStyle;rounded=0;orthogonalLoop=1;jettySize=auto;html=1;exitX=0.5;exitY=1;exitDx=0;exitDy=0;entryX=0.5;entryY=0;entryDx=0;entryDy=0;" parent="1" source="NGdMQY6MfUtfwmmD_sof-288" target="NGdMQY6MfUtfwmmD_sof-302" edge="1">
          <mxGeometry relative="1" as="geometry" />
        </mxCell>
        <mxCell id="NGdMQY6MfUtfwmmD_sof-288" value="BezeroContc()" style="rounded=1;whiteSpace=wrap;html=1;" parent="1" vertex="1">
          <mxGeometry x="-208.75" y="905" width="120" height="60" as="geometry" />
        </mxCell>
        <mxCell id="NGdMQY6MfUtfwmmD_sof-302" value="IDATZI BEZERO.txt&lt;div&gt;IDATZI BEZERO_TELEFONO.txt&lt;/div&gt;&lt;div&gt;(Taula batean)&lt;/div&gt;" style="shape=parallelogram;perimeter=parallelogramPerimeter;whiteSpace=wrap;html=1;fixedSize=1;" parent="1" vertex="1">
          <mxGeometry x="-264.37" y="1000" width="223.75" height="60" as="geometry" />
        </mxCell>
        <mxCell id="NGdMQY6MfUtfwmmD_sof-304" style="edgeStyle=orthogonalEdgeStyle;rounded=0;orthogonalLoop=1;jettySize=auto;html=1;exitX=0.5;exitY=1;exitDx=0;exitDy=0;entryX=0.5;entryY=0;entryDx=0;entryDy=0;" parent="1" source="NGdMQY6MfUtfwmmD_sof-305" target="NGdMQY6MfUtfwmmD_sof-307" edge="1">
          <mxGeometry relative="1" as="geometry" />
        </mxCell>
        <mxCell id="NGdMQY6MfUtfwmmD_sof-305" value="FakturaSortu()" style="rounded=1;whiteSpace=wrap;html=1;" parent="1" vertex="1">
          <mxGeometry x="354.5" y="750" width="120" height="60" as="geometry" />
        </mxCell>
        <mxCell id="NGdMQY6MfUtfwmmD_sof-306" style="edgeStyle=orthogonalEdgeStyle;rounded=0;orthogonalLoop=1;jettySize=auto;html=1;exitX=0.5;exitY=1;exitDx=0;exitDy=0;entryX=0.5;entryY=0;entryDx=0;entryDy=0;" parent="1" source="NGdMQY6MfUtfwmmD_sof-307" target="NGdMQY6MfUtfwmmD_sof-309" edge="1">
          <mxGeometry relative="1" as="geometry" />
        </mxCell>
        <mxCell id="NGdMQY6MfUtfwmmD_sof-307" value="IRAKURRI InBezeroId" style="shape=parallelogram;perimeter=parallelogramPerimeter;whiteSpace=wrap;html=1;fixedSize=1;" parent="1" vertex="1">
          <mxGeometry x="332" y="840" width="165" height="30" as="geometry" />
        </mxCell>
        <mxCell id="NGdMQY6MfUtfwmmD_sof-308" style="edgeStyle=orthogonalEdgeStyle;rounded=0;orthogonalLoop=1;jettySize=auto;html=1;exitX=0.5;exitY=1;exitDx=0;exitDy=0;entryX=0.5;entryY=0;entryDx=0;entryDy=0;" parent="1" source="NGdMQY6MfUtfwmmD_sof-309" target="NGdMQY6MfUtfwmmD_sof-312" edge="1">
          <mxGeometry relative="1" as="geometry" />
        </mxCell>
        <mxCell id="NGdMQY6MfUtfwmmD_sof-309" value="bezeroAurkitua = false" style="rounded=0;whiteSpace=wrap;html=1;" parent="1" vertex="1">
          <mxGeometry x="347" y="895" width="135" height="35" as="geometry" />
        </mxCell>
        <mxCell id="NGdMQY6MfUtfwmmD_sof-310" style="edgeStyle=orthogonalEdgeStyle;rounded=0;orthogonalLoop=1;jettySize=auto;html=1;exitX=0;exitY=0.5;exitDx=0;exitDy=0;entryX=0.5;entryY=0;entryDx=0;entryDy=0;" parent="1" source="NGdMQY6MfUtfwmmD_sof-312" target="NGdMQY6MfUtfwmmD_sof-314" edge="1">
          <mxGeometry relative="1" as="geometry" />
        </mxCell>
        <mxCell id="NGdMQY6MfUtfwmmD_sof-311" style="edgeStyle=orthogonalEdgeStyle;rounded=0;orthogonalLoop=1;jettySize=auto;html=1;exitX=1;exitY=0.5;exitDx=0;exitDy=0;entryX=0.5;entryY=0;entryDx=0;entryDy=0;" parent="1" source="NGdMQY6MfUtfwmmD_sof-312" target="NGdMQY6MfUtfwmmD_sof-315" edge="1">
          <mxGeometry relative="1" as="geometry" />
        </mxCell>
        <mxCell id="NGdMQY6MfUtfwmmD_sof-312" value="izena.LANGILE.txt = InIzena &amp;amp;&amp;amp; abizena.LANGILE.txt = InAbizena" style="rhombus;whiteSpace=wrap;html=1;" parent="1" vertex="1">
          <mxGeometry x="272" y="955" width="285" height="80" as="geometry" />
        </mxCell>
        <mxCell id="NGdMQY6MfUtfwmmD_sof-324" style="edgeStyle=orthogonalEdgeStyle;rounded=0;orthogonalLoop=1;jettySize=auto;html=1;exitX=0.5;exitY=1;exitDx=0;exitDy=0;entryX=0.5;entryY=0;entryDx=0;entryDy=0;" parent="1" source="NGdMQY6MfUtfwmmD_sof-314" target="NGdMQY6MfUtfwmmD_sof-323" edge="1">
          <mxGeometry relative="1" as="geometry" />
        </mxCell>
        <mxCell id="NGdMQY6MfUtfwmmD_sof-314" value="bezeroAurkitua = true" style="rounded=0;whiteSpace=wrap;html=1;" parent="1" vertex="1">
          <mxGeometry x="179.5" y="1045" width="130" height="35" as="geometry" />
        </mxCell>
        <mxCell id="NGdMQY6MfUtfwmmD_sof-315" value="bezeroAurkitua = false" style="rounded=0;whiteSpace=wrap;html=1;" parent="1" vertex="1">
          <mxGeometry x="519.5" y="1045" width="130" height="35" as="geometry" />
        </mxCell>
        <mxCell id="NGdMQY6MfUtfwmmD_sof-317" value="BAI" style="text;html=1;align=center;verticalAlign=middle;whiteSpace=wrap;rounded=0;" parent="1" vertex="1">
          <mxGeometry x="229.5" y="965" width="60" height="30" as="geometry" />
        </mxCell>
        <mxCell id="NGdMQY6MfUtfwmmD_sof-318" value="EZ" style="text;html=1;align=center;verticalAlign=middle;whiteSpace=wrap;rounded=0;" parent="1" vertex="1">
          <mxGeometry x="539.5" y="965" width="60" height="30" as="geometry" />
        </mxCell>
        <mxCell id="NGdMQY6MfUtfwmmD_sof-319" value="IDATZI &quot;Ez da aurkitu langilea&quot;" style="shape=parallelogram;perimeter=parallelogramPerimeter;whiteSpace=wrap;html=1;fixedSize=1;" parent="1" vertex="1">
          <mxGeometry x="-1237.5" y="955" width="165" height="45" as="geometry" />
        </mxCell>
        <mxCell id="NGdMQY6MfUtfwmmD_sof-321" value="IDATZI &quot;Ez da aurkitu nagusi Id-a&quot;" style="shape=parallelogram;perimeter=parallelogramPerimeter;whiteSpace=wrap;html=1;fixedSize=1;" parent="1" vertex="1">
          <mxGeometry x="-737.5" y="957.5" width="220" height="45" as="geometry" />
        </mxCell>
        <mxCell id="NGdMQY6MfUtfwmmD_sof-326" style="edgeStyle=orthogonalEdgeStyle;rounded=0;orthogonalLoop=1;jettySize=auto;html=1;exitX=0.5;exitY=1;exitDx=0;exitDy=0;entryX=0.5;entryY=0;entryDx=0;entryDy=0;" parent="1" source="NGdMQY6MfUtfwmmD_sof-323" target="NGdMQY6MfUtfwmmD_sof-325" edge="1">
          <mxGeometry relative="1" as="geometry" />
        </mxCell>
        <mxCell id="NGdMQY6MfUtfwmmD_sof-323" value="Double TotalPrecio&lt;div&gt;Double subtotal&lt;/div&gt;&lt;div&gt;Double precio (ESKARI_LERRO.txt)&lt;/div&gt;&lt;div&gt;Double cantidad (ESKARI_LERRO.txt)&lt;/div&gt;&lt;div&gt;&lt;br&gt;&lt;/div&gt;&lt;div&gt;subtotal = precio*cantidad&lt;/div&gt;&lt;div&gt;TotalPrecio = subtotal+TotalPrecio&lt;/div&gt;" style="rounded=0;whiteSpace=wrap;html=1;" parent="1" vertex="1">
          <mxGeometry x="127.87" y="1110" width="233.25" height="131" as="geometry" />
        </mxCell>
        <mxCell id="NGdMQY6MfUtfwmmD_sof-325" value="Sortzen da ./BEZEROEN_ESKARIAK&lt;div&gt;(Erabiltzen ESKARI_LERRO.txt, ESKARI.txt&lt;/div&gt;&lt;div&gt;subtotal eta TotalPrecio)&lt;/div&gt;" style="shape=parallelogram;perimeter=parallelogramPerimeter;whiteSpace=wrap;html=1;fixedSize=1;" parent="1" vertex="1">
          <mxGeometry x="90" y="1280" width="309" height="60" as="geometry" />
        </mxCell>
        <mxCell id="NGdMQY6MfUtfwmmD_sof-345" style="edgeStyle=orthogonalEdgeStyle;rounded=0;orthogonalLoop=1;jettySize=auto;html=1;exitX=0.5;exitY=1;exitDx=0;exitDy=0;entryX=0.5;entryY=0;entryDx=0;entryDy=0;" parent="1" source="NGdMQY6MfUtfwmmD_sof-328" target="NGdMQY6MfUtfwmmD_sof-344" edge="1">
          <mxGeometry relative="1" as="geometry" />
        </mxCell>
        <mxCell id="NGdMQY6MfUtfwmmD_sof-328" value="Kontsultak(String archivo)" style="rounded=1;whiteSpace=wrap;html=1;" parent="1" vertex="1">
          <mxGeometry x="685.5" y="750" width="161" height="60" as="geometry" />
        </mxCell>
        <mxCell id="NGdMQY6MfUtfwmmD_sof-344" value="IDATZI archivo + &quot;.txt&quot;" style="shape=parallelogram;perimeter=parallelogramPerimeter;whiteSpace=wrap;html=1;fixedSize=1;" parent="1" vertex="1">
          <mxGeometry x="684.5" y="841" width="163" height="49" as="geometry" />
        </mxCell>
        <mxCell id="1VTT25YmE3QGY-ZTXDmP-15" style="edgeStyle=orthogonalEdgeStyle;rounded=0;orthogonalLoop=1;jettySize=auto;html=1;exitX=0.5;exitY=1;exitDx=0;exitDy=0;entryX=0.5;entryY=0;entryDx=0;entryDy=0;" edge="1" parent="1" source="NGdMQY6MfUtfwmmD_sof-346" target="1VTT25YmE3QGY-ZTXDmP-14">
          <mxGeometry relative="1" as="geometry" />
        </mxCell>
        <mxCell id="NGdMQY6MfUtfwmmD_sof-346" value="HASIERA" style="rounded=1;whiteSpace=wrap;html=1;" parent="1" vertex="1">
          <mxGeometry x="-52.5" y="1610" width="90" height="40" as="geometry" />
        </mxCell>
        <mxCell id="1VTT25YmE3QGY-ZTXDmP-17" style="edgeStyle=orthogonalEdgeStyle;rounded=0;orthogonalLoop=1;jettySize=auto;html=1;exitX=0;exitY=0.5;exitDx=0;exitDy=0;entryX=0.5;entryY=0;entryDx=0;entryDy=0;" edge="1" parent="1" source="1VTT25YmE3QGY-ZTXDmP-5" target="1VTT25YmE3QGY-ZTXDmP-12">
          <mxGeometry relative="1" as="geometry" />
        </mxCell>
        <mxCell id="1VTT25YmE3QGY-ZTXDmP-20" style="edgeStyle=orthogonalEdgeStyle;rounded=0;orthogonalLoop=1;jettySize=auto;html=1;exitX=1;exitY=0.5;exitDx=0;exitDy=0;entryX=1;entryY=0.5;entryDx=0;entryDy=0;" edge="1" parent="1" source="1VTT25YmE3QGY-ZTXDmP-5" target="1VTT25YmE3QGY-ZTXDmP-14">
          <mxGeometry relative="1" as="geometry">
            <Array as="points">
              <mxPoint x="117.5" y="1780" />
              <mxPoint x="117.5" y="1695" />
            </Array>
          </mxGeometry>
        </mxCell>
        <mxCell id="1VTT25YmE3QGY-ZTXDmP-5" value="Login() = true" style="rhombus;whiteSpace=wrap;html=1;" vertex="1" parent="1">
          <mxGeometry x="-58.75" y="1740" width="102.5" height="80" as="geometry" />
        </mxCell>
        <mxCell id="1VTT25YmE3QGY-ZTXDmP-9" value="BAI" style="text;html=1;align=center;verticalAlign=middle;whiteSpace=wrap;rounded=0;" vertex="1" parent="1">
          <mxGeometry x="-118.75" y="1750" width="60" height="30" as="geometry" />
        </mxCell>
        <mxCell id="1VTT25YmE3QGY-ZTXDmP-12" value="Menup(Login())" style="shape=process;whiteSpace=wrap;html=1;backgroundOutline=1;" vertex="1" parent="1">
          <mxGeometry x="-176" y="1820" width="113.5" height="40" as="geometry" />
        </mxCell>
        <mxCell id="1VTT25YmE3QGY-ZTXDmP-16" style="edgeStyle=orthogonalEdgeStyle;rounded=0;orthogonalLoop=1;jettySize=auto;html=1;exitX=0.5;exitY=1;exitDx=0;exitDy=0;entryX=0.5;entryY=0;entryDx=0;entryDy=0;" edge="1" parent="1" source="1VTT25YmE3QGY-ZTXDmP-14" target="1VTT25YmE3QGY-ZTXDmP-5">
          <mxGeometry relative="1" as="geometry" />
        </mxCell>
        <mxCell id="1VTT25YmE3QGY-ZTXDmP-14" value="Login()" style="shape=process;whiteSpace=wrap;html=1;backgroundOutline=1;" vertex="1" parent="1">
          <mxGeometry x="-46" y="1680" width="77" height="30" as="geometry" />
        </mxCell>
        <mxCell id="1VTT25YmE3QGY-ZTXDmP-19" value="EZ" style="text;html=1;align=center;verticalAlign=middle;whiteSpace=wrap;rounded=0;" vertex="1" parent="1">
          <mxGeometry x="43.75" y="1750" width="60" height="30" as="geometry" />
        </mxCell>
        <mxCell id="1VTT25YmE3QGY-ZTXDmP-25" value="&lt;b&gt;&lt;font style=&quot;font-size: 18px;&quot;&gt;INDEX&lt;/font&gt;&lt;/b&gt;" style="text;html=1;align=center;verticalAlign=middle;whiteSpace=wrap;rounded=0;" vertex="1" parent="1">
          <mxGeometry x="-37.5" y="1540" width="60" height="30" as="geometry" />
        </mxCell>
      </root>
    </mxGraphModel>
  </diagram>
</mxfile>
